solid 
   facet normal 5.194678e-004 9.288621e-001 -3.704252e-001
      outer loop
         vertex 6.499039e+000 1.117604e-001 -5.640795e+000
         vertex 6.497608e+000 1.763270e-001 -5.478893e+000
         vertex 9.500000e+000 1.289275e-001 -5.593539e+000
      endloop
   endfacet
   facet normal 1.377327e-002 2.829856e-001 -9.590253e-001
      outer loop
         vertex 6.497608e+000 9.142316e-001 -4.620385e+000
         vertex 6.497608e+000 2.000000e+000 -4.300000e+000
         vertex 9.500000e+000 1.061752e+000 -4.533735e+000
      endloop
   endfacet
   facet normal 0.000000e+000 2.417307e-001 -9.703434e-001
      outer loop
         vertex 9.500000e+000 2.000000e+000 -4.300000e+000
         vertex 9.500000e+000 1.061752e+000 -4.533735e+000
         vertex 6.497608e+000 2.000000e+000 -4.300000e+000
      endloop
   endfacet
   facet normal -1.079689e-002 9.836947e-001 -1.795220e-001
      outer loop
         vertex 9.500000e+000 1.289275e-001 -5.593539e+000
         vertex 9.500000e+000 3.552714e-016 -6.300000e+000
         vertex 6.499899e+000 3.621477e-002 -5.921127e+000
      endloop
   endfacet
   facet normal 6.988731e-017 9.954628e-001 -9.515184e-002
      outer loop
         vertex 6.500000e+000 5.613996e-016 -6.300000e+000
         vertex 6.499899e+000 3.621477e-002 -5.921127e+000
         vertex 9.500000e+000 3.552714e-016 -6.300000e+000
      endloop
   endfacet
   facet normal -6.001705e-003 8.588186e-001 -5.122447e-001
      outer loop
         vertex 9.500000e+000 1.289275e-001 -5.593539e+000
         vertex 6.497608e+000 1.763270e-001 -5.478893e+000
         vertex 9.500000e+000 4.892803e-001 -4.989379e+000
      endloop
   endfacet
   facet normal 2.721705e-002 7.580843e-001 -6.515884e-001
      outer loop
         vertex 9.500000e+000 4.892803e-001 -4.989379e+000
         vertex 6.497608e+000 1.763270e-001 -5.478893e+000
         vertex 6.497608e+000 9.142316e-001 -4.620385e+000
      endloop
   endfacet
   facet normal -8.017286e-003 6.227285e-001 -7.823969e-001
      outer loop
         vertex 9.500000e+000 1.061752e+000 -4.533735e+000
         vertex 9.500000e+000 4.892803e-001 -4.989379e+000
         vertex 6.497608e+000 9.142316e-001 -4.620385e+000
      endloop
   endfacet
   facet normal -1.426017e-003 9.655518e-001 -2.602071e-001
      outer loop
         vertex 6.499039e+000 1.117604e-001 -5.640795e+000
         vertex 9.500000e+000 1.289275e-001 -5.593539e+000
         vertex 6.499899e+000 3.621477e-002 -5.921127e+000
      endloop
   endfacet
   facet normal 0.000000e+000 2.417307e-001 -9.703434e-001
      outer loop
         vertex -9.500000e+000 2.000000e+000 -4.300000e+000
         vertex -6.497608e+000 2.000000e+000 -4.300000e+000
         vertex -9.500000e+000 1.061752e+000 -4.533735e+000
      endloop
   endfacet
   facet normal -2.721705e-002 7.580843e-001 -6.515884e-001
      outer loop
         vertex -6.497608e+000 9.142316e-001 -4.620385e+000
         vertex -6.497608e+000 1.763270e-001 -5.478893e+000
         vertex -9.500000e+000 4.892803e-001 -4.989379e+000
      endloop
   endfacet
   facet normal -6.732025e-016 9.877127e-001 -1.562804e-001
      outer loop
         vertex -6.499266e+000 9.769426e-002 -5.682559e+000
         vertex -6.500000e+000 3.105881e-016 -6.300000e+000
         vertex -9.500000e+000 -1.734144e-015 -6.300000e+000
      endloop
   endfacet
   facet normal 6.001705e-003 8.588186e-001 -5.122447e-001
      outer loop
         vertex -9.500000e+000 1.289275e-001 -5.593539e+000
         vertex -9.500000e+000 4.892803e-001 -4.989379e+000
         vertex -6.497608e+000 1.763270e-001 -5.478893e+000
      endloop
   endfacet
   facet normal -1.377327e-002 2.829856e-001 -9.590253e-001
      outer loop
         vertex -9.500000e+000 1.061752e+000 -4.533735e+000
         vertex -6.497608e+000 2.000000e+000 -4.300000e+000
         vertex -6.497608e+000 9.142316e-001 -4.620385e+000
      endloop
   endfacet
   facet normal -9.747572e-004 9.328876e-001 -3.601663e-001
      outer loop
         vertex -9.500000e+000 1.289275e-001 -5.593539e+000
         vertex -6.497608e+000 1.763270e-001 -5.478893e+000
         vertex -6.499266e+000 9.769426e-002 -5.682559e+000
      endloop
   endfacet
   facet normal 4.913318e-003 9.837402e-001 -1.795303e-001
      outer loop
         vertex -9.500000e+000 -1.734144e-015 -6.300000e+000
         vertex -9.500000e+000 1.289275e-001 -5.593539e+000
         vertex -6.499266e+000 9.769426e-002 -5.682559e+000
      endloop
   endfacet
   facet normal 8.017286e-003 6.227285e-001 -7.823969e-001
      outer loop
         vertex -6.497608e+000 9.142316e-001 -4.620385e+000
         vertex -9.500000e+000 4.892803e-001 -4.989379e+000
         vertex -9.500000e+000 1.061752e+000 -4.533735e+000
      endloop
   endfacet
   facet normal -9.261518e-001 -3.771510e-001 0.000000e+000
      outer loop
         vertex 6.400000e+000 1.000000e-001 3.000000e+000
         vertex 6.400000e+000 1.000000e-001 -3.300000e+000
         vertex 6.428449e+000 3.014017e-002 -3.300000e+000
      endloop
   endfacet
   facet normal -8.370500e-003 -9.999650e-001 4.534618e-007
      outer loop
         vertex 6.497608e+000 1.716847e-005 -3.300000e+000
         vertex 6.498804e+000 7.153785e-006 -3.300000e+000
         vertex 6.500000e+000 0.000000e+000 3.000000e+000
      endloop
   endfacet
   facet normal -5.981781e-003 -9.999821e-001 4.032045e-017
      outer loop
         vertex 6.500000e+000 -2.540234e-016 -3.300000e+000
         vertex 6.500000e+000 0.000000e+000 3.000000e+000
         vertex 6.498804e+000 7.153785e-006 -3.300000e+000
      endloop
   endfacet
   facet normal -9.238799e-001 -3.826826e-001 7.159835e-005
      outer loop
         vertex 6.400000e+000 1.000000e-001 3.000000e+000
         vertex 6.428449e+000 3.014017e-002 -3.300000e+000
         vertex 6.429289e+000 2.928932e-002 3.000000e+000
      endloop
   endfacet
   facet normal -3.993264e-001 -9.168088e-001 -7.053354e-005
      outer loop
         vertex 6.428449e+000 3.014017e-002 -3.300000e+000
         vertex 6.497608e+000 1.716847e-005 -3.300000e+000
         vertex 6.429289e+000 2.928932e-002 3.000000e+000
      endloop
   endfacet
   facet normal -3.826835e-001 -9.238795e-001 1.427983e-004
      outer loop
         vertex 6.497608e+000 1.716847e-005 -3.300000e+000
         vertex 6.500000e+000 0.000000e+000 3.000000e+000
         vertex 6.429289e+000 2.928932e-002 3.000000e+000
      endloop
   endfacet
   facet normal 8.370498e-003 -9.999650e-001 4.534617e-007
      outer loop
         vertex -6.498804e+000 7.153785e-006 -3.300000e+000
         vertex -6.497608e+000 1.716847e-005 -3.300000e+000
         vertex -6.500000e+000 7.910339e-016 3.000000e+000
      endloop
   endfacet
   facet normal 9.261518e-001 -3.771510e-001 0.000000e+000
      outer loop
         vertex -6.428449e+000 3.014017e-002 -3.300000e+000
         vertex -6.400000e+000 1.000000e-001 -3.300000e+000
         vertex -6.400000e+000 1.000000e-001 3.000000e+000
      endloop
   endfacet
   facet normal 3.826835e-001 -9.238795e-001 1.427983e-004
      outer loop
         vertex -6.429289e+000 2.928932e-002 3.000000e+000
         vertex -6.500000e+000 7.910339e-016 3.000000e+000
         vertex -6.497608e+000 1.716847e-005 -3.300000e+000
      endloop
   endfacet
   facet normal 5.981781e-003 -9.999821e-001 1.351649e-016
      outer loop
         vertex -6.500000e+000 -6.052078e-017 -3.300000e+000
         vertex -6.498804e+000 7.153785e-006 -3.300000e+000
         vertex -6.500000e+000 7.910339e-016 3.000000e+000
      endloop
   endfacet
   facet normal 3.993264e-001 -9.168088e-001 -7.053354e-005
      outer loop
         vertex -6.497608e+000 1.716847e-005 -3.300000e+000
         vertex -6.428449e+000 3.014017e-002 -3.300000e+000
         vertex -6.429289e+000 2.928932e-002 3.000000e+000
      endloop
   endfacet
   facet normal 9.238799e-001 -3.826826e-001 7.159835e-005
      outer loop
         vertex -6.428449e+000 3.014017e-002 -3.300000e+000
         vertex -6.400000e+000 1.000000e-001 3.000000e+000
         vertex -6.429289e+000 2.928932e-002 3.000000e+000
      endloop
   endfacet
   facet normal 0.000000e+000 0.000000e+000 1.000000e+000
      outer loop
         vertex -6.092608e+000 2.823673e+000 -3.300000e+000
         vertex -6.400000e+000 2.650010e+001 -3.300000e+000
         vertex -6.400000e+000 2.823673e+000 -3.300000e+000
      endloop
   endfacet
   facet normal 0.000000e+000 -0.000000e+000 1.000000e+000
      outer loop
         vertex -6.400000e+000 2.650010e+001 -3.300000e+000
         vertex -6.092608e+000 2.823673e+000 -3.300000e+000
         vertex -6.092608e+000 2.650010e+001 -3.300000e+000
      endloop
   endfacet
   facet normal 0.000000e+000 0.000000e+000 -1.000000e+000
      outer loop
         vertex -6.498804e+000 7.153785e-006 -3.300000e+000
         vertex -6.500000e+000 -6.052078e-017 -3.300000e+000
         vertex -6.497608e+000 1.716847e-005 -3.300000e+000
      endloop
   endfacet
   facet normal 1.000000e+000 0.000000e+000 0.000000e+000
      outer loop
         vertex -6.400000e+000 1.000000e-001 3.000000e+000
         vertex -6.400000e+000 1.000000e-001 -3.300000e+000
         vertex -6.400000e+000 2.823673e+000 -3.300000e+000
      endloop
   endfacet
   facet normal 1.000000e+000 0.000000e+000 0.000000e+000
      outer loop
         vertex -6.400000e+000 2.650010e+001 -3.300000e+000
         vertex -6.400000e+000 2.650010e+001 3.000000e+000
         vertex -6.400000e+000 2.341559e+001 -6.000000e-001
      endloop
   endfacet
   facet normal 1.000000e+000 0.000000e+000 0.000000e+000
      outer loop
         vertex -6.400000e+000 2.341550e+001 -6.000000e-001
         vertex -6.400000e+000 2.341559e+001 -6.000000e-001
         vertex -6.400000e+000 2.341550e+001 7.000000e-001
      endloop
   endfacet
   facet normal 1.000000e+000 -0.000000e+000 0.000000e+000
      outer loop
         vertex -6.400000e+000 2.341559e+001 -7.000000e-001
         vertex -6.400000e+000 1.950019e+001 -7.000000e-001
         vertex -6.400000e+000 2.650010e+001 -3.300000e+000
      endloop
   endfacet
   facet normal 1.000000e+000 0.000000e+000 -0.000000e+000
      outer loop
         vertex -6.400000e+000 1.950019e+001 -6.000000e-001
         vertex -6.400000e+000 2.150010e+001 -6.000000e-001
         vertex -6.400000e+000 2.150010e+001 6.000000e-001
      endloop
   endfacet
   facet normal 1.000000e+000 0.000000e+000 0.000000e+000
      outer loop
         vertex -6.400000e+000 1.950010e+001 6.000000e-001
         vertex -6.400000e+000 1.950010e+001 7.000000e-001
         vertex -6.400000e+000 2.823673e+000 -3.300000e+000
      endloop
   endfacet
   facet normal 1.000000e+000 0.000000e+000 -0.000000e+000
      outer loop
         vertex -6.400000e+000 1.000000e-001 3.000000e+000
         vertex -6.400000e+000 2.823673e+000 -3.300000e+000
         vertex -6.400000e+000 1.950010e+001 7.000000e-001
      endloop
   endfacet
   facet normal 1.000000e+000 0.000000e+000 0.000000e+000
      outer loop
         vertex -6.400000e+000 2.341559e+001 -6.000000e-001
         vertex -6.400000e+000 2.650010e+001 3.000000e+000
         vertex -6.400000e+000 2.341550e+001 7.000000e-001
      endloop
   endfacet
   facet normal 1.000000e+000 0.000000e+000 0.000000e+000
      outer loop
         vertex -6.400000e+000 2.650010e+001 -3.300000e+000
         vertex -6.400000e+000 1.950019e+001 -7.000000e-001
         vertex -6.400000e+000 2.823673e+000 -3.300000e+000
      endloop
   endfacet
   facet normal 1.000000e+000 0.000000e+000 -0.000000e+000
      outer loop
         vertex -6.400000e+000 1.000000e-001 3.000000e+000
         vertex -6.400000e+000 1.950010e+001 7.000000e-001
         vertex -6.400000e+000 2.650010e+001 3.000000e+000
      endloop
   endfacet
   facet normal 1.000000e+000 0.000000e+000 0.000000e+000
      outer loop
         vertex -6.400000e+000 2.650010e+001 3.000000e+000
         vertex -6.400000e+000 1.950010e+001 7.000000e-001
         vertex -6.400000e+000 2.341550e+001 7.000000e-001
      endloop
   endfacet
   facet normal 1.000000e+000 -0.000000e+000 0.000000e+000
      outer loop
         vertex -6.400000e+000 2.341559e+001 -6.000000e-001
         vertex -6.400000e+000 2.341559e+001 -7.000000e-001
         vertex -6.400000e+000 2.650010e+001 -3.300000e+000
      endloop
   endfacet
   facet normal 1.000000e+000 -0.000000e+000 0.000000e+000
      outer loop
         vertex -6.400000e+000 2.150010e+001 6.000000e-001
         vertex -6.400000e+000 1.950010e+001 6.000000e-001
         vertex -6.400000e+000 1.950019e+001 -6.000000e-001
      endloop
   endfacet
   facet normal 1.000000e+000 0.000000e+000 -0.000000e+000
      outer loop
         vertex -6.400000e+000 2.823673e+000 -3.300000e+000
         vertex -6.400000e+000 1.950019e+001 -7.000000e-001
         vertex -6.400000e+000 1.950019e+001 -6.000000e-001
      endloop
   endfacet
   facet normal 1.000000e+000 0.000000e+000 0.000000e+000
      outer loop
         vertex -6.400000e+000 1.950010e+001 6.000000e-001
         vertex -6.400000e+000 2.823673e+000 -3.300000e+000
         vertex -6.400000e+000 1.950019e+001 -6.000000e-001
      endloop
   endfacet
   facet normal -1.000000e+000 0.000000e+000 0.000000e+000
      outer loop
         vertex 6.400000e+000 2.650010e+001 -3.300000e+000
         vertex 6.400000e+000 2.823673e+000 -3.300000e+000
         vertex 6.400000e+000 1.950019e+001 -7.000000e-001
      endloop
   endfacet
   facet normal -1.000000e+000 0.000000e+000 0.000000e+000
      outer loop
         vertex 6.400000e+000 1.000000e-001 -3.300000e+000
         vertex 6.400000e+000 1.000000e-001 3.000000e+000
         vertex 6.400000e+000 2.823673e+000 -3.300000e+000
      endloop
   endfacet
   facet normal -1.000000e+000 0.000000e+000 0.000000e+000
      outer loop
         vertex 6.400000e+000 2.150010e+001 -6.000000e-001
         vertex 6.400000e+000 1.950019e+001 -6.000000e-001
         vertex 6.400000e+000 2.150010e+001 6.000000e-001
      endloop
   endfacet
   facet normal -1.000000e+000 -0.000000e+000 -0.000000e+000
      outer loop
         vertex 6.400000e+000 1.950019e+001 -7.000000e-001
         vertex 6.400000e+000 2.341559e+001 -7.000000e-001
         vertex 6.400000e+000 2.650010e+001 -3.300000e+000
      endloop
   endfacet
   facet normal -1.000000e+000 0.000000e+000 0.000000e+000
      outer loop
         vertex 6.400000e+000 2.341559e+001 -6.000000e-001
         vertex 6.400000e+000 2.341550e+001 -6.000000e-001
         vertex 6.400000e+000 2.341550e+001 7.000000e-001
      endloop
   endfacet
   facet normal -1.000000e+000 -0.000000e+000 0.000000e+000
      outer loop
         vertex 6.400000e+000 1.950010e+001 7.000000e-001
         vertex 6.400000e+000 1.950010e+001 6.000000e-001
         vertex 6.400000e+000 2.823673e+000 -3.300000e+000
      endloop
   endfacet
   facet normal -1.000000e+000 0.000000e+000 0.000000e+000
      outer loop
         vertex 6.400000e+000 1.950019e+001 -7.000000e-001
         vertex 6.400000e+000 2.823673e+000 -3.300000e+000
         vertex 6.400000e+000 1.950019e+001 -6.000000e-001
      endloop
   endfacet
   facet normal -1.000000e+000 0.000000e+000 0.000000e+000
      outer loop
         vertex 6.400000e+000 2.650010e+001 -3.300000e+000
         vertex 6.400000e+000 2.341559e+001 -7.000000e-001
         vertex 6.400000e+000 2.341559e+001 -6.000000e-001
      endloop
   endfacet
   facet normal -1.000000e+000 0.000000e+000 -0.000000e+000
      outer loop
         vertex 6.400000e+000 2.823673e+000 -3.300000e+000
         vertex 6.400000e+000 1.950010e+001 6.000000e-001
         vertex 6.400000e+000 1.950019e+001 -6.000000e-001
      endloop
   endfacet
   facet normal -1.000000e+000 0.000000e+000 0.000000e+000
      outer loop
         vertex 6.400000e+000 1.950019e+001 -6.000000e-001
         vertex 6.400000e+000 1.950010e+001 6.000000e-001
         vertex 6.400000e+000 2.150010e+001 6.000000e-001
      endloop
   endfacet
   facet normal -1.000000e+000 -0.000000e+000 0.000000e+000
      outer loop
         vertex 6.400000e+000 1.000000e-001 3.000000e+000
         vertex 6.400000e+000 2.650010e+001 3.000000e+000
         vertex 6.400000e+000 1.950010e+001 7.000000e-001
      endloop
   endfacet
   facet normal -1.000000e+000 0.000000e+000 0.000000e+000
      outer loop
         vertex 6.400000e+000 2.341550e+001 7.000000e-001
         vertex 6.400000e+000 1.950010e+001 7.000000e-001
         vertex 6.400000e+000 2.650010e+001 3.000000e+000
      endloop
   endfacet
   facet normal -1.000000e+000 0.000000e+000 0.000000e+000
      outer loop
         vertex 6.400000e+000 2.341559e+001 -6.000000e-001
         vertex 6.400000e+000 2.341550e+001 7.000000e-001
         vertex 6.400000e+000 2.650010e+001 3.000000e+000
      endloop
   endfacet
   facet normal -1.000000e+000 0.000000e+000 0.000000e+000
      outer loop
         vertex 6.400000e+000 2.650010e+001 -3.300000e+000
         vertex 6.400000e+000 2.341559e+001 -6.000000e-001
         vertex 6.400000e+000 2.650010e+001 3.000000e+000
      endloop
   endfacet
   facet normal -1.000000e+000 0.000000e+000 0.000000e+000
      outer loop
         vertex 6.400000e+000 2.823673e+000 -3.300000e+000
         vertex 6.400000e+000 1.000000e-001 3.000000e+000
         vertex 6.400000e+000 1.950010e+001 7.000000e-001
      endloop
   endfacet
   facet normal -0.000000e+000 0.000000e+000 1.000000e+000
      outer loop
         vertex 6.400000e+000 2.650010e+001 -3.300000e+000
         vertex 6.092608e+000 2.650010e+001 -3.300000e+000
         vertex 6.092608e+000 2.823673e+000 -3.300000e+000
      endloop
   endfacet
   facet normal 0.000000e+000 0.000000e+000 1.000000e+000
      outer loop
         vertex 6.400000e+000 2.650010e+001 -3.300000e+000
         vertex 6.092608e+000 2.823673e+000 -3.300000e+000
         vertex 6.400000e+000 2.823673e+000 -3.300000e+000
      endloop
   endfacet
   facet normal 0.000000e+000 0.000000e+000 -1.000000e+000
      outer loop
         vertex 6.500000e+000 -2.540234e-016 -3.300000e+000
         vertex 6.498804e+000 7.153785e-006 -3.300000e+000
         vertex 6.497608e+000 1.716847e-005 -3.300000e+000
      endloop
   endfacet
   facet normal -9.848077e-001 0.000000e+000 1.736484e-001
      outer loop
         vertex 5.916281e+000 2.650010e+001 -4.300000e+000
         vertex 5.916281e+000 2.823673e+000 -4.300000e+000
         vertex 6.092608e+000 2.823673e+000 -3.300000e+000
      endloop
   endfacet
   facet normal -9.848077e-001 0.000000e+000 1.736484e-001
      outer loop
         vertex 6.092608e+000 2.650010e+001 -3.300000e+000
         vertex 5.916281e+000 2.650010e+001 -4.300000e+000
         vertex 6.092608e+000 2.823673e+000 -3.300000e+000
      endloop
   endfacet
   facet normal -7.067361e-003 -9.847814e-001 1.736538e-001
      outer loop
         vertex 6.500000e+000 -2.540234e-016 -3.300000e+000
         vertex 6.497608e+000 1.716847e-005 -3.300000e+000
         vertex 6.499118e+000 -1.070532e-001 -3.907129e+000
      endloop
   endfacet
   facet normal -4.415574e-003 -9.847953e-001 1.736628e-001
      outer loop
         vertex 6.497608e+000 -1.763270e-001 -4.300000e+000
         vertex 6.499118e+000 -1.070532e-001 -3.907129e+000
         vertex 6.497608e+000 1.716847e-005 -3.300000e+000
      endloop
   endfacet
   facet normal -9.999079e-001 -1.356611e-002 -4.142432e-004
      outer loop
         vertex 6.500000e+000 1.808731e-014 -4.300000e+000
         vertex 6.497608e+000 1.763270e-001 -4.300000e+000
         vertex 6.499039e+000 1.117604e-001 -5.640795e+000
      endloop
   endfacet
   facet normal -9.997543e-001 -2.216491e-002 0.000000e+000
      outer loop
         vertex 6.497608e+000 1.763270e-001 -5.478893e+000
         vertex 6.499039e+000 1.117604e-001 -5.640795e+000
         vertex 6.497608e+000 1.763270e-001 -4.300000e+000
      endloop
   endfacet
   facet normal -9.847094e-001 1.736308e-001 1.413004e-002
      outer loop
         vertex 6.500000e+000 5.613996e-016 -6.300000e+000
         vertex 6.108002e+000 -2.223131e+000 -6.300000e+000
         vertex 6.497608e+000 -1.763270e-001 -4.300000e+000
      endloop
   endfacet
   facet normal -6.427875e-001 7.660445e-001 0.000000e+000
      outer loop
         vertex 4.979289e+000 -4.178120e+000 -6.300000e+000
         vertex 3.250000e+000 -5.629165e+000 -6.300000e+000
         vertex 3.250000e+000 -5.629165e+000 3.000000e+000
      endloop
   endfacet
   facet normal 0.000000e+000 1.000000e+000 0.000000e+000
      outer loop
         vertex 1.128713e+000 -6.401250e+000 -6.300000e+000
         vertex -1.128713e+000 -6.401250e+000 -6.300000e+000
         vertex -1.128713e+000 -6.401250e+000 3.000000e+000
      endloop
   endfacet
   facet normal 6.427875e-001 7.660445e-001 -0.000000e+000
      outer loop
         vertex -3.250000e+000 -5.629165e+000 -6.300000e+000
         vertex -4.979289e+000 -4.178120e+000 -6.300000e+000
         vertex -4.979289e+000 -4.178120e+000 3.000000e+000
      endloop
   endfacet
   facet normal 9.847094e-001 1.736308e-001 1.413004e-002
      outer loop
         vertex -6.108002e+000 -2.223131e+000 -6.300000e+000
         vertex -6.500000e+000 3.105881e-016 -6.300000e+000
         vertex -6.497608e+000 -1.763270e-001 -4.300000e+000
      endloop
   endfacet
   facet normal 9.997778e-001 -2.108021e-002 0.000000e+000
      outer loop
         vertex -6.499266e+000 9.769426e-002 -5.682559e+000
         vertex -6.497608e+000 1.763270e-001 -5.478893e+000
         vertex -6.497608e+000 1.763270e-001 -4.300000e+000
      endloop
   endfacet
   facet normal 9.999080e-001 1.356611e-002 -1.100537e-016
      outer loop
         vertex -6.500000e+000 1.652346e-014 -4.300000e+000
         vertex -6.497608e+000 -1.763270e-001 -4.300000e+000
         vertex -6.500000e+000 3.105881e-016 -6.300000e+000
      endloop
   endfacet
   facet normal 9.999858e-001 5.327933e-003 -7.201629e-019
      outer loop
         vertex -6.499631e+000 -6.927016e-002 -3.692851e+000
         vertex -6.500000e+000 -6.052078e-017 -3.300000e+000
         vertex -6.500000e+000 7.910339e-016 3.000000e+000
      endloop
   endfacet
   facet normal 8.660254e-001 5.000000e-001 0.000000e+000
      outer loop
         vertex -6.108002e+000 -2.223131e+000 3.000000e+000
         vertex -4.979289e+000 -4.178120e+000 3.000000e+000
         vertex -4.979289e+000 -4.178120e+000 -6.300000e+000
      endloop
   endfacet
   facet normal 3.420201e-001 9.396926e-001 0.000000e+000
      outer loop
         vertex -3.250000e+000 -5.629165e+000 3.000000e+000
         vertex -1.128713e+000 -6.401250e+000 3.000000e+000
         vertex -1.128713e+000 -6.401250e+000 -6.300000e+000
      endloop
   endfacet
   facet normal -3.420201e-001 9.396926e-001 0.000000e+000
      outer loop
         vertex 1.128713e+000 -6.401250e+000 3.000000e+000
         vertex 3.250000e+000 -5.629165e+000 3.000000e+000
         vertex 3.250000e+000 -5.629165e+000 -6.300000e+000
      endloop
   endfacet
   facet normal -8.660254e-001 5.000000e-001 0.000000e+000
      outer loop
         vertex 4.979289e+000 -4.178120e+000 3.000000e+000
         vertex 6.108002e+000 -2.223131e+000 3.000000e+000
         vertex 6.108002e+000 -2.223131e+000 -6.300000e+000
      endloop
   endfacet
   facet normal -9.999661e-001 8.235550e-003 -3.320670e-019
      outer loop
         vertex 6.500000e+000 0.000000e+000 3.000000e+000
         vertex 6.500000e+000 -2.540234e-016 -3.300000e+000
         vertex 6.499118e+000 -1.070532e-001 -3.907129e+000
      endloop
   endfacet
   facet normal -9.999080e-001 1.356611e-002 -1.188793e-016
      outer loop
         vertex 6.497608e+000 -1.763270e-001 -4.300000e+000
         vertex 6.500000e+000 1.808731e-014 -4.300000e+000
         vertex 6.500000e+000 5.613996e-016 -6.300000e+000
      endloop
   endfacet
   facet normal -9.823617e-001 1.869908e-001 0.000000e+000
      outer loop
         vertex 6.497608e+000 -1.763270e-001 -4.300000e+000
         vertex 6.108002e+000 -2.223131e+000 -6.300000e+000
         vertex 6.108002e+000 -2.223131e+000 3.000000e+000
      endloop
   endfacet
   facet normal -0.000000e+000 1.000000e+000 0.000000e+000
      outer loop
         vertex 1.128713e+000 -6.401250e+000 -6.300000e+000
         vertex -1.128713e+000 -6.401250e+000 3.000000e+000
         vertex 1.128713e+000 -6.401250e+000 3.000000e+000
      endloop
   endfacet
   facet normal 9.999079e-001 -1.356611e-002 -4.275185e-004
      outer loop
         vertex -6.499266e+000 9.769426e-002 -5.682559e+000
         vertex -6.497608e+000 1.763270e-001 -4.300000e+000
         vertex -6.500000e+000 1.652346e-014 -4.300000e+000
      endloop
   endfacet
   facet normal 8.660254e-001 5.000000e-001 0.000000e+000
      outer loop
         vertex -6.108002e+000 -2.223131e+000 3.000000e+000
         vertex -4.979289e+000 -4.178120e+000 -6.300000e+000
         vertex -6.108002e+000 -2.223131e+000 -6.300000e+000
      endloop
   endfacet
   facet normal -8.660254e-001 5.000000e-001 0.000000e+000
      outer loop
         vertex 4.979289e+000 -4.178120e+000 3.000000e+000
         vertex 6.108002e+000 -2.223131e+000 -6.300000e+000
         vertex 4.979289e+000 -4.178120e+000 -6.300000e+000
      endloop
   endfacet
   facet normal -9.848004e-001 1.736468e-001 -3.871601e-003
      outer loop
         vertex 6.497608e+000 -1.763270e-001 -4.300000e+000
         vertex 6.108002e+000 -2.223131e+000 3.000000e+000
         vertex 6.500000e+000 0.000000e+000 3.000000e+000
      endloop
   endfacet
   facet normal 9.823617e-001 1.869908e-001 -0.000000e+000
      outer loop
         vertex -6.108002e+000 -2.223131e+000 3.000000e+000
         vertex -6.108002e+000 -2.223131e+000 -6.300000e+000
         vertex -6.497608e+000 -1.763270e-001 -4.300000e+000
      endloop
   endfacet
   facet normal 9.848004e-001 1.736468e-001 -3.871601e-003
      outer loop
         vertex -6.108002e+000 -2.223131e+000 3.000000e+000
         vertex -6.497608e+000 -1.763270e-001 -4.300000e+000
         vertex -6.500000e+000 7.910339e-016 3.000000e+000
      endloop
   endfacet
   facet normal -9.999424e-001 -1.072709e-002 -1.775754e-004
      outer loop
         vertex 6.499039e+000 1.117604e-001 -5.640795e+000
         vertex 6.499899e+000 3.621477e-002 -5.921127e+000
         vertex 6.500000e+000 1.808731e-014 -4.300000e+000
      endloop
   endfacet
   facet normal -3.420201e-001 9.396926e-001 0.000000e+000
      outer loop
         vertex 3.250000e+000 -5.629165e+000 -6.300000e+000
         vertex 1.128713e+000 -6.401250e+000 -6.300000e+000
         vertex 1.128713e+000 -6.401250e+000 3.000000e+000
      endloop
   endfacet
   facet normal 9.999718e-001 -7.516394e-003 6.096743e-017
      outer loop
         vertex -6.500000e+000 3.105881e-016 -6.300000e+000
         vertex -6.499266e+000 9.769426e-002 -5.682559e+000
         vertex -6.500000e+000 1.652346e-014 -4.300000e+000
      endloop
   endfacet
   facet normal 6.427875e-001 7.660445e-001 0.000000e+000
      outer loop
         vertex -4.979289e+000 -4.178120e+000 3.000000e+000
         vertex -3.250000e+000 -5.629165e+000 3.000000e+000
         vertex -3.250000e+000 -5.629165e+000 -6.300000e+000
      endloop
   endfacet
   facet normal -9.997329e-001 2.310815e-002 -2.305394e-004
      outer loop
         vertex 6.499118e+000 -1.070532e-001 -3.907129e+000
         vertex 6.497608e+000 -1.763270e-001 -4.300000e+000
         vertex 6.500000e+000 0.000000e+000 3.000000e+000
      endloop
   endfacet
   facet normal 9.998051e-001 1.974094e-002 -1.491827e-004
      outer loop
         vertex -6.499631e+000 -6.927016e-002 -3.692851e+000
         vertex -6.500000e+000 7.910339e-016 3.000000e+000
         vertex -6.497608e+000 -1.763270e-001 -4.300000e+000
      endloop
   endfacet
   facet normal -6.427875e-001 7.660445e-001 0.000000e+000
      outer loop
         vertex 4.979289e+000 -4.178120e+000 3.000000e+000
         vertex 4.979289e+000 -4.178120e+000 -6.300000e+000
         vertex 3.250000e+000 -5.629165e+000 3.000000e+000
      endloop
   endfacet
   facet normal -9.999961e-001 -2.778211e-003 2.434534e-017
      outer loop
         vertex 6.499899e+000 3.621477e-002 -5.921127e+000
         vertex 6.500000e+000 5.613996e-016 -6.300000e+000
         vertex 6.500000e+000 1.808731e-014 -4.300000e+000
      endloop
   endfacet
   facet normal 3.420201e-001 9.396926e-001 0.000000e+000
      outer loop
         vertex -3.250000e+000 -5.629165e+000 3.000000e+000
         vertex -1.128713e+000 -6.401250e+000 -6.300000e+000
         vertex -3.250000e+000 -5.629165e+000 -6.300000e+000
      endloop
   endfacet
   facet normal 5.077748e-003 -9.847922e-001 1.736623e-001
      outer loop
         vertex -6.499631e+000 -6.927016e-002 -3.692851e+000
         vertex -6.497608e+000 -1.763270e-001 -4.300000e+000
         vertex -6.497608e+000 1.716847e-005 -3.300000e+000
      endloop
   endfacet
   facet normal 7.067365e-003 -9.847820e-001 1.736503e-001
      outer loop
         vertex -6.500000e+000 -6.052078e-017 -3.300000e+000
         vertex -6.499631e+000 -6.927016e-002 -3.692851e+000
         vertex -6.497608e+000 1.716847e-005 -3.300000e+000
      endloop
   endfacet
   facet normal 9.848077e-001 -0.000000e+000 1.736484e-001
      outer loop
         vertex -6.092608e+000 2.650010e+001 -3.300000e+000
         vertex -6.092608e+000 2.823673e+000 -3.300000e+000
         vertex -5.916281e+000 2.823673e+000 -4.300000e+000
      endloop
   endfacet
   facet normal 9.848077e-001 0.000000e+000 1.736484e-001
      outer loop
         vertex -5.916281e+000 2.650010e+001 -4.300000e+000
         vertex -6.092608e+000 2.650010e+001 -3.300000e+000
         vertex -5.916281e+000 2.823673e+000 -4.300000e+000
      endloop
   endfacet
   facet normal 0.000000e+000 0.000000e+000 -1.000000e+000
      outer loop
         vertex 6.497608e+000 2.000000e+000 -4.300000e+000
         vertex 6.497608e+000 2.823673e+000 -4.300000e+000
         vertex 9.500000e+000 2.000000e+000 -4.300000e+000
      endloop
   endfacet
   facet normal 0.000000e+000 0.000000e+000 -1.000000e+000
      outer loop
         vertex 5.916281e+000 2.823673e+000 -4.300000e+000
         vertex 5.916281e+000 2.650010e+001 -4.300000e+000
         vertex 6.497608e+000 2.823673e+000 -4.300000e+000
      endloop
   endfacet
   facet normal 0.000000e+000 0.000000e+000 -1.000000e+000
      outer loop
         vertex 9.500000e+000 2.000000e+000 -4.300000e+000
         vertex 6.497608e+000 2.823673e+000 -4.300000e+000
         vertex 9.500000e+000 2.650010e+001 -4.300000e+000
      endloop
   endfacet
   facet normal -0.000000e+000 0.000000e+000 -1.000000e+000
      outer loop
         vertex 5.916281e+000 2.650010e+001 -4.300000e+000
         vertex 9.500000e+000 2.650010e+001 -4.300000e+000
         vertex 6.497608e+000 2.823673e+000 -4.300000e+000
      endloop
   endfacet
   facet normal 0.000000e+000 0.000000e+000 -1.000000e+000
      outer loop
         vertex 6.500000e+000 1.808731e-014 -4.300000e+000
         vertex 6.497608e+000 -1.763270e-001 -4.300000e+000
         vertex 6.497608e+000 1.763270e-001 -4.300000e+000
      endloop
   endfacet
   facet normal 0.000000e+000 -0.000000e+000 -1.000000e+000
      outer loop
         vertex -6.500000e+000 1.652346e-014 -4.300000e+000
         vertex -6.497608e+000 1.763270e-001 -4.300000e+000
         vertex -6.497608e+000 -1.763270e-001 -4.300000e+000
      endloop
   endfacet
   facet normal 0.000000e+000 0.000000e+000 -1.000000e+000
      outer loop
         vertex -5.916281e+000 2.823673e+000 -4.300000e+000
         vertex -6.497608e+000 2.823673e+000 -4.300000e+000
         vertex -5.916281e+000 2.650010e+001 -4.300000e+000
      endloop
   endfacet
   facet normal 0.000000e+000 0.000000e+000 -1.000000e+000
      outer loop
         vertex -6.497608e+000 2.000000e+000 -4.300000e+000
         vertex -9.500000e+000 2.000000e+000 -4.300000e+000
         vertex -6.497608e+000 2.823673e+000 -4.300000e+000
      endloop
   endfacet
   facet normal 0.000000e+000 0.000000e+000 -1.000000e+000
      outer loop
         vertex -5.916281e+000 2.650010e+001 -4.300000e+000
         vertex -6.497608e+000 2.823673e+000 -4.300000e+000
         vertex -9.500000e+000 2.650010e+001 -4.300000e+000
      endloop
   endfacet
   facet normal 0.000000e+000 0.000000e+000 -1.000000e+000
      outer loop
         vertex -9.500000e+000 2.000000e+000 -4.300000e+000
         vertex -9.500000e+000 2.650010e+001 -4.300000e+000
         vertex -6.497608e+000 2.823673e+000 -4.300000e+000
      endloop
   endfacet
   facet normal -0.000000e+000 0.000000e+000 -1.000000e+000
      outer loop
         vertex -6.497608e+000 2.823673e+000 -3.300000e+000
         vertex -6.400000e+000 2.823673e+000 -3.300000e+000
         vertex -6.428449e+000 3.014017e-002 -3.300000e+000
      endloop
   endfacet
   facet normal 0.000000e+000 0.000000e+000 -1.000000e+000
      outer loop
         vertex -6.400000e+000 1.000000e-001 -3.300000e+000
         vertex -6.428449e+000 3.014017e-002 -3.300000e+000
         vertex -6.400000e+000 2.823673e+000 -3.300000e+000
      endloop
   endfacet
   facet normal -0.000000e+000 0.000000e+000 -1.000000e+000
      outer loop
         vertex -6.497608e+000 2.823673e+000 -3.300000e+000
         vertex -6.428449e+000 3.014017e-002 -3.300000e+000
         vertex -6.497608e+000 1.716847e-005 -3.300000e+000
      endloop
   endfacet
   facet normal 0.000000e+000 -1.000000e+000 0.000000e+000
      outer loop
         vertex -6.400000e+000 2.823673e+000 -3.300000e+000
         vertex -6.497608e+000 2.823673e+000 -3.300000e+000
         vertex -6.497608e+000 2.823673e+000 -4.300000e+000
      endloop
   endfacet
   facet normal 0.000000e+000 -1.000000e+000 0.000000e+000
      outer loop
         vertex -6.497608e+000 2.823673e+000 -4.300000e+000
         vertex -5.916281e+000 2.823673e+000 -4.300000e+000
         vertex -6.092608e+000 2.823673e+000 -3.300000e+000
      endloop
   endfacet
   facet normal 0.000000e+000 -1.000000e+000 0.000000e+000
      outer loop
         vertex -6.400000e+000 2.823673e+000 -3.300000e+000
         vertex -6.497608e+000 2.823673e+000 -4.300000e+000
         vertex -6.092608e+000 2.823673e+000 -3.300000e+000
      endloop
   endfacet
   facet normal 1.000000e+000 0.000000e+000 0.000000e+000
      outer loop
         vertex -6.497608e+000 1.763270e-001 -4.300000e+000
         vertex -6.497608e+000 1.716847e-005 -3.300000e+000
         vertex -6.497608e+000 -1.763270e-001 -4.300000e+000
      endloop
   endfacet
   facet normal 1.000000e+000 0.000000e+000 -0.000000e+000
      outer loop
         vertex -6.497608e+000 2.000000e+000 -4.300000e+000
         vertex -6.497608e+000 2.823673e+000 -4.300000e+000
         vertex -6.497608e+000 2.823673e+000 -3.300000e+000
      endloop
   endfacet
   facet normal 1.000000e+000 0.000000e+000 0.000000e+000
      outer loop
         vertex -6.497608e+000 1.763270e-001 -4.300000e+000
         vertex -6.497608e+000 1.763270e-001 -5.478893e+000
         vertex -6.497608e+000 9.142316e-001 -4.620385e+000
      endloop
   endfacet
   facet normal 1.000000e+000 0.000000e+000 -0.000000e+000
      outer loop
         vertex -6.497608e+000 1.716847e-005 -3.300000e+000
         vertex -6.497608e+000 2.000000e+000 -4.300000e+000
         vertex -6.497608e+000 2.823673e+000 -3.300000e+000
      endloop
   endfacet
   facet normal 1.000000e+000 0.000000e+000 -0.000000e+000
      outer loop
         vertex -6.497608e+000 1.716847e-005 -3.300000e+000
         vertex -6.497608e+000 9.142316e-001 -4.620385e+000
         vertex -6.497608e+000 2.000000e+000 -4.300000e+000
      endloop
   endfacet
   facet normal 1.000000e+000 -0.000000e+000 -0.000000e+000
      outer loop
         vertex -6.497608e+000 1.716847e-005 -3.300000e+000
         vertex -6.497608e+000 1.763270e-001 -4.300000e+000
         vertex -6.497608e+000 9.142316e-001 -4.620385e+000
      endloop
   endfacet
   facet normal 0.000000e+000 0.000000e+000 -1.000000e+000
      outer loop
         vertex 6.428449e+000 3.014017e-002 -3.300000e+000
         vertex 6.400000e+000 1.000000e-001 -3.300000e+000
         vertex 6.400000e+000 2.823673e+000 -3.300000e+000
      endloop
   endfacet
   facet normal 0.000000e+000 0.000000e+000 -1.000000e+000
      outer loop
         vertex 6.497608e+000 2.823673e+000 -3.300000e+000
         vertex 6.497608e+000 1.716847e-005 -3.300000e+000
         vertex 6.428449e+000 3.014017e-002 -3.300000e+000
      endloop
   endfacet
   facet normal 0.000000e+000 0.000000e+000 -1.000000e+000
      outer loop
         vertex 6.497608e+000 2.823673e+000 -3.300000e+000
         vertex 6.428449e+000 3.014017e-002 -3.300000e+000
         vertex 6.400000e+000 2.823673e+000 -3.300000e+000
      endloop
   endfacet
   facet normal -1.000000e+000 0.000000e+000 -0.000000e+000
      outer loop
         vertex 6.497608e+000 2.000000e+000 -4.300000e+000
         vertex 6.497608e+000 2.823673e+000 -3.300000e+000
         vertex 6.497608e+000 2.823673e+000 -4.300000e+000
      endloop
   endfacet
   facet normal -1.000000e+000 0.000000e+000 0.000000e+000
      outer loop
         vertex 6.497608e+000 1.763270e-001 -4.300000e+000
         vertex 6.497608e+000 -1.763270e-001 -4.300000e+000
         vertex 6.497608e+000 1.716847e-005 -3.300000e+000
      endloop
   endfacet
   facet normal -1.000000e+000 -0.000000e+000 0.000000e+000
      outer loop
         vertex 6.497608e+000 1.763270e-001 -4.300000e+000
         vertex 6.497608e+000 9.142316e-001 -4.620385e+000
         vertex 6.497608e+000 1.763270e-001 -5.478893e+000
      endloop
   endfacet
   facet normal -1.000000e+000 0.000000e+000 0.000000e+000
      outer loop
         vertex 6.497608e+000 9.142316e-001 -4.620385e+000
         vertex 6.497608e+000 1.763270e-001 -4.300000e+000
         vertex 6.497608e+000 1.716847e-005 -3.300000e+000
      endloop
   endfacet
   facet normal -1.000000e+000 0.000000e+000 0.000000e+000
      outer loop
         vertex 6.497608e+000 2.000000e+000 -4.300000e+000
         vertex 6.497608e+000 1.716847e-005 -3.300000e+000
         vertex 6.497608e+000 2.823673e+000 -3.300000e+000
      endloop
   endfacet
   facet normal -1.000000e+000 0.000000e+000 0.000000e+000
      outer loop
         vertex 6.497608e+000 2.000000e+000 -4.300000e+000
         vertex 6.497608e+000 9.142316e-001 -4.620385e+000
         vertex 6.497608e+000 1.716847e-005 -3.300000e+000
      endloop
   endfacet
   facet normal 0.000000e+000 -1.000000e+000 -0.000000e+000
      outer loop
         vertex 6.497608e+000 2.823673e+000 -4.300000e+000
         vertex 6.092608e+000 2.823673e+000 -3.300000e+000
         vertex 5.916281e+000 2.823673e+000 -4.300000e+000
      endloop
   endfacet
   facet normal -0.000000e+000 -1.000000e+000 -0.000000e+000
      outer loop
         vertex 6.497608e+000 2.823673e+000 -4.300000e+000
         vertex 6.497608e+000 2.823673e+000 -3.300000e+000
         vertex 6.400000e+000 2.823673e+000 -3.300000e+000
      endloop
   endfacet
   facet normal 0.000000e+000 -1.000000e+000 0.000000e+000
      outer loop
         vertex 6.092608e+000 2.823673e+000 -3.300000e+000
         vertex 6.497608e+000 2.823673e+000 -4.300000e+000
         vertex 6.400000e+000 2.823673e+000 -3.300000e+000
      endloop
   endfacet
   facet normal 1.000000e+000 0.000000e+000 -0.000000e+000
      outer loop
         vertex 9.500000e+000 -5.782378e-016 -4.300000e+000
         vertex 9.500000e+000 3.552714e-016 -6.300000e+000
         vertex 9.500000e+000 1.289275e-001 -5.593539e+000
      endloop
   endfacet
   facet normal 1.000000e+000 0.000000e+000 0.000000e+000
      outer loop
         vertex 9.500000e+000 4.892803e-001 -4.989379e+000
         vertex 9.500000e+000 1.061752e+000 -4.533735e+000
         vertex 9.500000e+000 -5.782378e-016 -4.300000e+000
      endloop
   endfacet
   facet normal 1.000000e+000 0.000000e+000 -0.000000e+000
      outer loop
         vertex 9.500000e+000 2.000000e+000 -4.300000e+000
         vertex 9.500000e+000 2.650010e+001 -4.300000e+000
         vertex 9.500000e+000 2.650010e+001 6.000000e+000
      endloop
   endfacet
   facet normal 1.000000e+000 -0.000000e+000 -0.000000e+000
      outer loop
         vertex 9.500000e+000 -2.326829e-015 6.000000e+000
         vertex 9.500000e+000 -6.557735e-016 -3.300000e+000
         vertex 9.500000e+000 2.000000e+000 -4.300000e+000
      endloop
   endfacet
   facet normal 1.000000e+000 0.000000e+000 0.000000e+000
      outer loop
         vertex 9.500000e+000 -1.763270e-001 -4.300000e+000
         vertex 9.500000e+000 -5.782378e-016 -4.300000e+000
         vertex 9.500000e+000 -6.557735e-016 -3.300000e+000
      endloop
   endfacet
   facet normal 1.000000e+000 0.000000e+000 0.000000e+000
      outer loop
         vertex 9.500000e+000 -5.782378e-016 -4.300000e+000
         vertex 9.500000e+000 1.061752e+000 -4.533735e+000
         vertex 9.500000e+000 -6.557735e-016 -3.300000e+000
      endloop
   endfacet
   facet normal 1.000000e+000 0.000000e+000 -0.000000e+000
      outer loop
         vertex 9.500000e+000 -2.326829e-015 6.000000e+000
         vertex 9.500000e+000 2.000000e+000 -4.300000e+000
         vertex 9.500000e+000 2.650010e+001 6.000000e+000
      endloop
   endfacet
   facet normal 1.000000e+000 0.000000e+000 0.000000e+000
      outer loop
         vertex 9.500000e+000 1.289275e-001 -5.593539e+000
         vertex 9.500000e+000 4.892803e-001 -4.989379e+000
         vertex 9.500000e+000 -5.782378e-016 -4.300000e+000
      endloop
   endfacet
   facet normal 1.000000e+000 0.000000e+000 0.000000e+000
      outer loop
         vertex 9.500000e+000 2.000000e+000 -4.300000e+000
         vertex 9.500000e+000 -6.557735e-016 -3.300000e+000
         vertex 9.500000e+000 1.061752e+000 -4.533735e+000
      endloop
   endfacet
   facet normal -0.000000e+000 0.000000e+000 -1.000000e+000
      outer loop
         vertex 6.500000e+000 5.613996e-016 -6.300000e+000
         vertex 9.500000e+000 3.552714e-016 -6.300000e+000
         vertex 9.115183e+000 -2.676459e+000 -6.300000e+000
      endloop
   endfacet
   facet normal 0.000000e+000 0.000000e+000 -1.000000e+000
      outer loop
         vertex 7.991909e+000 -5.136088e+000 -6.300000e+000
         vertex 6.221177e+000 -7.179621e+000 -6.300000e+000
         vertex 4.979289e+000 -4.178120e+000 -6.300000e+000
      endloop
   endfacet
   facet normal 0.000000e+000 0.000000e+000 -1.000000e+000
      outer loop
         vertex 3.946443e+000 -8.641504e+000 -6.300000e+000
         vertex 1.351991e+000 -9.403304e+000 -6.300000e+000
         vertex 1.128713e+000 -6.401250e+000 -6.300000e+000
      endloop
   endfacet
   facet normal 0.000000e+000 0.000000e+000 -1.000000e+000
      outer loop
         vertex -1.351991e+000 -9.403304e+000 -6.300000e+000
         vertex -3.946443e+000 -8.641504e+000 -6.300000e+000
         vertex -1.128713e+000 -6.401250e+000 -6.300000e+000
      endloop
   endfacet
   facet normal 0.000000e+000 0.000000e+000 -1.000000e+000
      outer loop
         vertex -6.221177e+000 -7.179621e+000 -6.300000e+000
         vertex -7.991909e+000 -5.136088e+000 -6.300000e+000
         vertex -4.979289e+000 -4.178120e+000 -6.300000e+000
      endloop
   endfacet
   facet normal 0.000000e+000 0.000000e+000 -1.000000e+000
      outer loop
         vertex -9.115183e+000 -2.676459e+000 -6.300000e+000
         vertex -9.500000e+000 -1.734144e-015 -6.300000e+000
         vertex -6.500000e+000 3.105881e-016 -6.300000e+000
      endloop
   endfacet
   facet normal -0.000000e+000 0.000000e+000 -1.000000e+000
      outer loop
         vertex -6.108002e+000 -2.223131e+000 -6.300000e+000
         vertex -4.979289e+000 -4.178120e+000 -6.300000e+000
         vertex -7.991909e+000 -5.136088e+000 -6.300000e+000
      endloop
   endfacet
   facet normal -0.000000e+000 0.000000e+000 -1.000000e+000
      outer loop
         vertex -3.250000e+000 -5.629165e+000 -6.300000e+000
         vertex -1.128713e+000 -6.401250e+000 -6.300000e+000
         vertex -3.946443e+000 -8.641504e+000 -6.300000e+000
      endloop
   endfacet
   facet normal 0.000000e+000 -0.000000e+000 -1.000000e+000
      outer loop
         vertex 1.128713e+000 -6.401250e+000 -6.300000e+000
         vertex 3.250000e+000 -5.629165e+000 -6.300000e+000
         vertex 3.946443e+000 -8.641504e+000 -6.300000e+000
      endloop
   endfacet
   facet normal 0.000000e+000 -0.000000e+000 -1.000000e+000
      outer loop
         vertex 4.979289e+000 -4.178120e+000 -6.300000e+000
         vertex 6.108002e+000 -2.223131e+000 -6.300000e+000
         vertex 7.991909e+000 -5.136088e+000 -6.300000e+000
      endloop
   endfacet
   facet normal 0.000000e+000 0.000000e+000 -1.000000e+000
      outer loop
         vertex 6.500000e+000 5.613996e-016 -6.300000e+000
         vertex 9.115183e+000 -2.676459e+000 -6.300000e+000
         vertex 6.108002e+000 -2.223131e+000 -6.300000e+000
      endloop
   endfacet
   facet normal 0.000000e+000 -0.000000e+000 -1.000000e+000
      outer loop
         vertex -1.351991e+000 -9.403304e+000 -6.300000e+000
         vertex -1.128713e+000 -6.401250e+000 -6.300000e+000
         vertex 1.128713e+000 -6.401250e+000 -6.300000e+000
      endloop
   endfacet
   facet normal 0.000000e+000 0.000000e+000 -1.000000e+000
      outer loop
         vertex -6.108002e+000 -2.223131e+000 -6.300000e+000
         vertex -7.991909e+000 -5.136088e+000 -6.300000e+000
         vertex -9.115183e+000 -2.676459e+000 -6.300000e+000
      endloop
   endfacet
   facet normal 0.000000e+000 0.000000e+000 -1.000000e+000
      outer loop
         vertex 7.991909e+000 -5.136088e+000 -6.300000e+000
         vertex 6.108002e+000 -2.223131e+000 -6.300000e+000
         vertex 9.115183e+000 -2.676459e+000 -6.300000e+000
      endloop
   endfacet
   facet normal 0.000000e+000 0.000000e+000 -1.000000e+000
      outer loop
         vertex 6.221177e+000 -7.179621e+000 -6.300000e+000
         vertex 3.946443e+000 -8.641504e+000 -6.300000e+000
         vertex 3.250000e+000 -5.629165e+000 -6.300000e+000
      endloop
   endfacet
   facet normal 0.000000e+000 0.000000e+000 -1.000000e+000
      outer loop
         vertex -3.946443e+000 -8.641504e+000 -6.300000e+000
         vertex -6.221177e+000 -7.179621e+000 -6.300000e+000
         vertex -3.250000e+000 -5.629165e+000 -6.300000e+000
      endloop
   endfacet
   facet normal -0.000000e+000 0.000000e+000 -1.000000e+000
      outer loop
         vertex -4.979289e+000 -4.178120e+000 -6.300000e+000
         vertex -3.250000e+000 -5.629165e+000 -6.300000e+000
         vertex -6.221177e+000 -7.179621e+000 -6.300000e+000
      endloop
   endfacet
   facet normal 0.000000e+000 0.000000e+000 -1.000000e+000
      outer loop
         vertex 4.979289e+000 -4.178120e+000 -6.300000e+000
         vertex 6.221177e+000 -7.179621e+000 -6.300000e+000
         vertex 3.250000e+000 -5.629165e+000 -6.300000e+000
      endloop
   endfacet
   facet normal 0.000000e+000 -0.000000e+000 -1.000000e+000
      outer loop
         vertex -1.351991e+000 -9.403304e+000 -6.300000e+000
         vertex 1.128713e+000 -6.401250e+000 -6.300000e+000
         vertex 1.351991e+000 -9.403304e+000 -6.300000e+000
      endloop
   endfacet
   facet normal -0.000000e+000 0.000000e+000 -1.000000e+000
      outer loop
         vertex -6.500000e+000 3.105881e-016 -6.300000e+000
         vertex -6.108002e+000 -2.223131e+000 -6.300000e+000
         vertex -9.115183e+000 -2.676459e+000 -6.300000e+000
      endloop
   endfacet
   facet normal -1.000000e+000 0.000000e+000 0.000000e+000
      outer loop
         vertex -9.500000e+000 2.650010e+001 -4.300000e+000
         vertex -9.500000e+000 2.000000e+000 -4.300000e+000
         vertex -9.500000e+000 2.650010e+001 6.000000e+000
      endloop
   endfacet
   facet normal -1.000000e+000 0.000000e+000 0.000000e+000
      outer loop
         vertex -9.500000e+000 1.061752e+000 -4.533735e+000
         vertex -9.500000e+000 4.892803e-001 -4.989379e+000
         vertex -9.500000e+000 -3.160670e-015 -4.300000e+000
      endloop
   endfacet
   facet normal -1.000000e+000 0.000000e+000 0.000000e+000
      outer loop
         vertex -9.500000e+000 1.289275e-001 -5.593539e+000
         vertex -9.500000e+000 -1.734144e-015 -6.300000e+000
         vertex -9.500000e+000 -3.160670e-015 -4.300000e+000
      endloop
   endfacet
   facet normal -1.000000e+000 0.000000e+000 0.000000e+000
      outer loop
         vertex -9.500000e+000 -1.763270e-001 -4.300000e+000
         vertex -9.500000e+000 4.813629e-016 -3.300000e+000
         vertex -9.500000e+000 -3.160670e-015 -4.300000e+000
      endloop
   endfacet
   facet normal -1.000000e+000 0.000000e+000 0.000000e+000
      outer loop
         vertex -9.500000e+000 2.650010e+001 6.000000e+000
         vertex -9.500000e+000 2.000000e+000 -4.300000e+000
         vertex -9.500000e+000 1.163414e-015 6.000000e+000
      endloop
   endfacet
   facet normal -1.000000e+000 0.000000e+000 0.000000e+000
      outer loop
         vertex -9.500000e+000 1.289275e-001 -5.593539e+000
         vertex -9.500000e+000 -3.160670e-015 -4.300000e+000
         vertex -9.500000e+000 4.892803e-001 -4.989379e+000
      endloop
   endfacet
   facet normal -1.000000e+000 0.000000e+000 0.000000e+000
      outer loop
         vertex -9.500000e+000 2.000000e+000 -4.300000e+000
         vertex -9.500000e+000 1.061752e+000 -4.533735e+000
         vertex -9.500000e+000 4.813629e-016 -3.300000e+000
      endloop
   endfacet
   facet normal -1.000000e+000 0.000000e+000 0.000000e+000
      outer loop
         vertex -9.500000e+000 1.061752e+000 -4.533735e+000
         vertex -9.500000e+000 -3.160670e-015 -4.300000e+000
         vertex -9.500000e+000 4.813629e-016 -3.300000e+000
      endloop
   endfacet
   facet normal -1.000000e+000 0.000000e+000 0.000000e+000
      outer loop
         vertex -9.500000e+000 2.000000e+000 -4.300000e+000
         vertex -9.500000e+000 4.813629e-016 -3.300000e+000
         vertex -9.500000e+000 1.163414e-015 6.000000e+000
      endloop
   endfacet
   facet normal 0.000000e+000 0.000000e+000 -1.000000e+000
      outer loop
         vertex -6.108002e+000 -2.223131e+000 3.000000e+000
         vertex -6.429289e+000 2.928932e-002 3.000000e+000
         vertex -6.400000e+000 1.000000e-001 3.000000e+000
      endloop
   endfacet
   facet normal 0.000000e+000 0.000000e+000 -1.000000e+000
      outer loop
         vertex -6.429289e+000 2.928932e-002 3.000000e+000
         vertex -6.108002e+000 -2.223131e+000 3.000000e+000
         vertex -6.500000e+000 7.910339e-016 3.000000e+000
      endloop
   endfacet
   facet normal 0.000000e+000 0.000000e+000 -1.000000e+000
      outer loop
         vertex -6.400000e+000 1.000000e-001 3.000000e+000
         vertex -1.128713e+000 -6.401250e+000 3.000000e+000
         vertex -3.250000e+000 -5.629165e+000 3.000000e+000
      endloop
   endfacet
   facet normal -0.000000e+000 0.000000e+000 -1.000000e+000
      outer loop
         vertex 6.400000e+000 1.000000e-001 3.000000e+000
         vertex 3.250000e+000 -5.629165e+000 3.000000e+000
         vertex 1.128713e+000 -6.401250e+000 3.000000e+000
      endloop
   endfacet
   facet normal -0.000000e+000 0.000000e+000 -1.000000e+000
      outer loop
         vertex 6.400000e+000 1.000000e-001 3.000000e+000
         vertex 6.108002e+000 -2.223131e+000 3.000000e+000
         vertex 4.979289e+000 -4.178120e+000 3.000000e+000
      endloop
   endfacet
   facet normal 0.000000e+000 -0.000000e+000 -1.000000e+000
      outer loop
         vertex 6.108002e+000 -2.223131e+000 3.000000e+000
         vertex 6.429289e+000 2.928932e-002 3.000000e+000
         vertex 6.500000e+000 0.000000e+000 3.000000e+000
      endloop
   endfacet
   facet normal 0.000000e+000 0.000000e+000 -1.000000e+000
      outer loop
         vertex -6.400000e+000 1.000000e-001 3.000000e+000
         vertex -6.400000e+000 2.650010e+001 3.000000e+000
         vertex 6.400000e+000 2.650010e+001 3.000000e+000
      endloop
   endfacet
   facet normal 0.000000e+000 0.000000e+000 -1.000000e+000
      outer loop
         vertex -4.979289e+000 -4.178120e+000 3.000000e+000
         vertex -6.400000e+000 1.000000e-001 3.000000e+000
         vertex -3.250000e+000 -5.629165e+000 3.000000e+000
      endloop
   endfacet
   facet normal 0.000000e+000 0.000000e+000 -1.000000e+000
      outer loop
         vertex 4.979289e+000 -4.178120e+000 3.000000e+000
         vertex 3.250000e+000 -5.629165e+000 3.000000e+000
         vertex 6.400000e+000 1.000000e-001 3.000000e+000
      endloop
   endfacet
   facet normal 0.000000e+000 0.000000e+000 -1.000000e+000
      outer loop
         vertex 6.400000e+000 1.000000e-001 3.000000e+000
         vertex -6.400000e+000 1.000000e-001 3.000000e+000
         vertex 6.400000e+000 2.650010e+001 3.000000e+000
      endloop
   endfacet
   facet normal 0.000000e+000 0.000000e+000 -1.000000e+000
      outer loop
         vertex -6.400000e+000 1.000000e-001 3.000000e+000
         vertex -4.979289e+000 -4.178120e+000 3.000000e+000
         vertex -6.108002e+000 -2.223131e+000 3.000000e+000
      endloop
   endfacet
   facet normal 0.000000e+000 -0.000000e+000 -1.000000e+000
      outer loop
         vertex 6.108002e+000 -2.223131e+000 3.000000e+000
         vertex 6.400000e+000 1.000000e-001 3.000000e+000
         vertex 6.429289e+000 2.928932e-002 3.000000e+000
      endloop
   endfacet
   facet normal 0.000000e+000 0.000000e+000 -1.000000e+000
      outer loop
         vertex -1.128713e+000 -6.401250e+000 3.000000e+000
         vertex 6.400000e+000 1.000000e-001 3.000000e+000
         vertex 1.128713e+000 -6.401250e+000 3.000000e+000
      endloop
   endfacet
   facet normal 0.000000e+000 0.000000e+000 -1.000000e+000
      outer loop
         vertex 6.400000e+000 1.000000e-001 3.000000e+000
         vertex -1.128713e+000 -6.401250e+000 3.000000e+000
         vertex -6.400000e+000 1.000000e-001 3.000000e+000
      endloop
   endfacet
   facet normal 0.000000e+000 1.000000e+000 -0.000000e+000
      outer loop
         vertex 9.500000e+000 2.650010e+001 6.000000e+000
         vertex 9.500000e+000 2.650010e+001 -4.300000e+000
         vertex 6.400000e+000 2.650010e+001 3.000000e+000
      endloop
   endfacet
   facet normal -0.000000e+000 1.000000e+000 0.000000e+000
      outer loop
         vertex 5.916281e+000 2.650010e+001 -4.300000e+000
         vertex 6.092608e+000 2.650010e+001 -3.300000e+000
         vertex 6.400000e+000 2.650010e+001 -3.300000e+000
      endloop
   endfacet
   facet normal 0.000000e+000 1.000000e+000 -0.000000e+000
      outer loop
         vertex 6.400000e+000 2.650010e+001 3.000000e+000
         vertex -6.400000e+000 2.650010e+001 3.000000e+000
         vertex -9.500000e+000 2.650010e+001 6.000000e+000
      endloop
   endfacet
   facet normal 0.000000e+000 1.000000e+000 0.000000e+000
      outer loop
         vertex -6.400000e+000 2.650010e+001 -3.300000e+000
         vertex -6.092608e+000 2.650010e+001 -3.300000e+000
         vertex -5.916281e+000 2.650010e+001 -4.300000e+000
      endloop
   endfacet
   facet normal 0.000000e+000 1.000000e+000 0.000000e+000
      outer loop
         vertex -9.500000e+000 2.650010e+001 -4.300000e+000
         vertex -9.500000e+000 2.650010e+001 6.000000e+000
         vertex -6.400000e+000 2.650010e+001 3.000000e+000
      endloop
   endfacet
   facet normal 0.000000e+000 1.000000e+000 -0.000000e+000
      outer loop
         vertex 9.500000e+000 2.650010e+001 6.000000e+000
         vertex 6.400000e+000 2.650010e+001 3.000000e+000
         vertex -9.500000e+000 2.650010e+001 6.000000e+000
      endloop
   endfacet
   facet normal 0.000000e+000 1.000000e+000 0.000000e+000
      outer loop
         vertex -6.400000e+000 2.650010e+001 -3.300000e+000
         vertex -5.916281e+000 2.650010e+001 -4.300000e+000
         vertex -9.500000e+000 2.650010e+001 -4.300000e+000
      endloop
   endfacet
   facet normal 0.000000e+000 1.000000e+000 0.000000e+000
      outer loop
         vertex 9.500000e+000 2.650010e+001 -4.300000e+000
         vertex 5.916281e+000 2.650010e+001 -4.300000e+000
         vertex 6.400000e+000 2.650010e+001 -3.300000e+000
      endloop
   endfacet
   facet normal 0.000000e+000 1.000000e+000 -0.000000e+000
      outer loop
         vertex -6.400000e+000 2.650010e+001 3.000000e+000
         vertex -6.400000e+000 2.650010e+001 -3.300000e+000
         vertex -9.500000e+000 2.650010e+001 -4.300000e+000
      endloop
   endfacet
   facet normal -0.000000e+000 1.000000e+000 0.000000e+000
      outer loop
         vertex 9.500000e+000 2.650010e+001 -4.300000e+000
         vertex 6.400000e+000 2.650010e+001 -3.300000e+000
         vertex 6.400000e+000 2.650010e+001 3.000000e+000
      endloop
   endfacet
   facet normal 0.000000e+000 -1.000000e+000 0.000000e+000
      outer loop
         vertex -6.400000e+000 2.341559e+001 -6.000000e-001
         vertex -8.400000e+000 2.341559e+001 -7.000000e-001
         vertex -6.400000e+000 2.341559e+001 -7.000000e-001
      endloop
   endfacet
   facet normal -0.000000e+000 -1.000000e+000 0.000000e+000
      outer loop
         vertex -8.400000e+000 2.341559e+001 -7.000000e-001
         vertex -6.400000e+000 2.341559e+001 -6.000000e-001
         vertex -8.400000e+000 2.341559e+001 -6.000000e-001
      endloop
   endfacet
   facet normal 0.000000e+000 0.000000e+000 1.000000e+000
      outer loop
         vertex -6.400000e+000 2.341559e+001 -7.000000e-001
         vertex -8.400000e+000 1.950019e+001 -7.000000e-001
         vertex -6.400000e+000 1.950019e+001 -7.000000e-001
      endloop
   endfacet
   facet normal 0.000000e+000 0.000000e+000 1.000000e+000
      outer loop
         vertex -8.400000e+000 1.950019e+001 -7.000000e-001
         vertex -6.400000e+000 2.341559e+001 -7.000000e-001
         vertex -8.400000e+000 2.341559e+001 -7.000000e-001
      endloop
   endfacet
   facet normal -0.000000e+000 1.000000e+000 0.000000e+000
      outer loop
         vertex -6.400000e+000 1.950019e+001 -7.000000e-001
         vertex -7.400000e+000 1.950019e+001 -6.000000e-001
         vertex -6.400000e+000 1.950019e+001 -6.000000e-001
      endloop
   endfacet
   facet normal 0.000000e+000 1.000000e+000 0.000000e+000
      outer loop
         vertex -7.400000e+000 1.950019e+001 -6.000000e-001
         vertex -8.400000e+000 1.950019e+001 -7.000000e-001
         vertex -8.400000e+000 1.950019e+001 -6.000000e-001
      endloop
   endfacet
   facet normal 0.000000e+000 1.000000e+000 0.000000e+000
      outer loop
         vertex -6.400000e+000 1.950019e+001 -7.000000e-001
         vertex -8.400000e+000 1.950019e+001 -7.000000e-001
         vertex -7.400000e+000 1.950019e+001 -6.000000e-001
      endloop
   endfacet
   facet normal 0.000000e+000 0.000000e+000 -1.000000e+000
      outer loop
         vertex -6.400000e+000 2.150010e+001 -6.000000e-001
         vertex -7.400000e+000 2.150010e+001 -6.000000e-001
         vertex -6.400000e+000 2.337689e+001 -6.000000e-001
      endloop
   endfacet
   facet normal 0.000000e+000 0.000000e+000 -1.000000e+000
      outer loop
         vertex -7.400000e+000 2.150010e+001 -6.000000e-001
         vertex -6.400000e+000 1.950019e+001 -6.000000e-001
         vertex -7.400000e+000 1.950019e+001 -6.000000e-001
      endloop
   endfacet
   facet normal 0.000000e+000 -0.000000e+000 -1.000000e+000
      outer loop
         vertex -6.400000e+000 2.150010e+001 -6.000000e-001
         vertex -5.400000e+000 2.250010e+001 -6.000000e-001
         vertex -5.400000e+000 2.150010e+001 -6.000000e-001
      endloop
   endfacet
   facet normal 0.000000e+000 0.000000e+000 -1.000000e+000
      outer loop
         vertex -6.400000e+000 1.950019e+001 -6.000000e-001
         vertex -7.400000e+000 2.150010e+001 -6.000000e-001
         vertex -6.400000e+000 2.150010e+001 -6.000000e-001
      endloop
   endfacet
   facet normal 0.000000e+000 0.000000e+000 -1.000000e+000
      outer loop
         vertex -6.400000e+000 2.150010e+001 -6.000000e-001
         vertex -6.400000e+000 2.337689e+001 -6.000000e-001
         vertex -5.400000e+000 2.250010e+001 -6.000000e-001
      endloop
   endfacet
   facet normal 0.000000e+000 -1.000000e+000 0.000000e+000
      outer loop
         vertex -6.400000e+000 2.150010e+001 6.000000e-001
         vertex -6.400000e+000 2.150010e+001 -6.000000e-001
         vertex -5.400000e+000 2.150010e+001 -6.000000e-001
      endloop
   endfacet
   facet normal 0.000000e+000 -1.000000e+000 0.000000e+000
      outer loop
         vertex -5.400000e+000 2.150010e+001 6.000000e-001
         vertex -6.400000e+000 2.150010e+001 6.000000e-001
         vertex -5.400000e+000 2.150010e+001 -6.000000e-001
      endloop
   endfacet
   facet normal 0.000000e+000 0.000000e+000 1.000000e+000
      outer loop
         vertex -6.400000e+000 1.950010e+001 6.000000e-001
         vertex -6.400000e+000 2.150010e+001 6.000000e-001
         vertex -7.400000e+000 2.150010e+001 6.000000e-001
      endloop
   endfacet
   facet normal 0.000000e+000 0.000000e+000 1.000000e+000
      outer loop
         vertex -5.400000e+000 2.150010e+001 6.000000e-001
         vertex -5.400000e+000 2.250010e+001 6.000000e-001
         vertex -6.400000e+000 2.150010e+001 6.000000e-001
      endloop
   endfacet
   facet normal 0.000000e+000 0.000000e+000 1.000000e+000
      outer loop
         vertex -7.400000e+000 2.150010e+001 6.000000e-001
         vertex -7.400000e+000 1.950010e+001 6.000000e-001
         vertex -6.400000e+000 1.950010e+001 6.000000e-001
      endloop
   endfacet
   facet normal 0.000000e+000 0.000000e+000 1.000000e+000
      outer loop
         vertex -6.400000e+000 2.150010e+001 6.000000e-001
         vertex -5.400000e+000 2.250010e+001 6.000000e-001
         vertex -6.400000e+000 2.337689e+001 6.000000e-001
      endloop
   endfacet
   facet normal 0.000000e+000 0.000000e+000 1.000000e+000
      outer loop
         vertex -6.400000e+000 2.337689e+001 6.000000e-001
         vertex -7.400000e+000 2.150010e+001 6.000000e-001
         vertex -6.400000e+000 2.150010e+001 6.000000e-001
      endloop
   endfacet
   facet normal 0.000000e+000 1.000000e+000 -0.000000e+000
      outer loop
         vertex -7.400000e+000 1.950010e+001 6.000000e-001
         vertex -7.400000e+000 1.950010e+001 -6.000000e-001
         vertex -8.400000e+000 1.950010e+001 -6.000000e-001
      endloop
   endfacet
   facet normal 0.000000e+000 1.000000e+000 0.000000e+000
      outer loop
         vertex -8.400000e+000 1.950010e+001 7.000000e-001
         vertex -6.400000e+000 1.950010e+001 7.000000e-001
         vertex -7.400000e+000 1.950010e+001 6.000000e-001
      endloop
   endfacet
   facet normal 0.000000e+000 1.000000e+000 0.000000e+000
      outer loop
         vertex -6.400000e+000 1.950010e+001 6.000000e-001
         vertex -7.400000e+000 1.950010e+001 6.000000e-001
         vertex -6.400000e+000 1.950010e+001 7.000000e-001
      endloop
   endfacet
   facet normal 0.000000e+000 1.000000e+000 0.000000e+000
      outer loop
         vertex -8.400000e+000 1.950010e+001 -6.000000e-001
         vertex -8.400000e+000 1.950010e+001 7.000000e-001
         vertex -7.400000e+000 1.950010e+001 6.000000e-001
      endloop
   endfacet
   facet normal -0.000000e+000 0.000000e+000 -1.000000e+000
      outer loop
         vertex -8.400000e+000 2.341550e+001 7.000000e-001
         vertex -6.400000e+000 2.341550e+001 7.000000e-001
         vertex -8.400000e+000 1.950010e+001 7.000000e-001
      endloop
   endfacet
   facet normal 0.000000e+000 0.000000e+000 -1.000000e+000
      outer loop
         vertex -6.400000e+000 1.950010e+001 7.000000e-001
         vertex -8.400000e+000 1.950010e+001 7.000000e-001
         vertex -6.400000e+000 2.341550e+001 7.000000e-001
      endloop
   endfacet
   facet normal 0.000000e+000 -1.000000e+000 0.000000e+000
      outer loop
         vertex -8.400000e+000 2.341550e+001 7.000000e-001
         vertex -8.400000e+000 2.341550e+001 -6.000000e-001
         vertex -6.400000e+000 2.341550e+001 7.000000e-001
      endloop
   endfacet
   facet normal 0.000000e+000 -1.000000e+000 -0.000000e+000
      outer loop
         vertex -6.400000e+000 2.341550e+001 -6.000000e-001
         vertex -6.400000e+000 2.341550e+001 7.000000e-001
         vertex -8.400000e+000 2.341550e+001 -6.000000e-001
      endloop
   endfacet
   facet normal 0.000000e+000 1.000000e+000 0.000000e+000
      outer loop
         vertex 7.400000e+000 1.950019e+001 -6.000000e-001
         vertex 8.400000e+000 1.950019e+001 -7.000000e-001
         vertex 6.400000e+000 1.950019e+001 -7.000000e-001
      endloop
   endfacet
   facet normal -0.000000e+000 1.000000e+000 0.000000e+000
      outer loop
         vertex 8.400000e+000 1.950019e+001 -7.000000e-001
         vertex 7.400000e+000 1.950019e+001 -6.000000e-001
         vertex 8.400000e+000 1.950019e+001 -6.000000e-001
      endloop
   endfacet
   facet normal 0.000000e+000 1.000000e+000 0.000000e+000
      outer loop
         vertex 6.400000e+000 1.950019e+001 -6.000000e-001
         vertex 7.400000e+000 1.950019e+001 -6.000000e-001
         vertex 6.400000e+000 1.950019e+001 -7.000000e-001
      endloop
   endfacet
   facet normal 0.000000e+000 0.000000e+000 1.000000e+000
      outer loop
         vertex 8.400000e+000 1.950019e+001 -7.000000e-001
         vertex 8.400000e+000 2.341559e+001 -7.000000e-001
         vertex 6.400000e+000 2.341559e+001 -7.000000e-001
      endloop
   endfacet
   facet normal 0.000000e+000 0.000000e+000 1.000000e+000
      outer loop
         vertex 8.400000e+000 1.950019e+001 -7.000000e-001
         vertex 6.400000e+000 2.341559e+001 -7.000000e-001
         vertex 6.400000e+000 1.950019e+001 -7.000000e-001
      endloop
   endfacet
   facet normal -0.000000e+000 -1.000000e+000 -0.000000e+000
      outer loop
         vertex 8.400000e+000 2.341559e+001 -7.000000e-001
         vertex 8.400000e+000 2.341559e+001 -6.000000e-001
         vertex 6.400000e+000 2.341559e+001 -6.000000e-001
      endloop
   endfacet
   facet normal 0.000000e+000 -1.000000e+000 0.000000e+000
      outer loop
         vertex 8.400000e+000 2.341559e+001 -7.000000e-001
         vertex 6.400000e+000 2.341559e+001 -6.000000e-001
         vertex 6.400000e+000 2.341559e+001 -7.000000e-001
      endloop
   endfacet
   facet normal 0.000000e+000 -1.000000e+000 0.000000e+000
      outer loop
         vertex 6.400000e+000 2.341550e+001 7.000000e-001
         vertex 6.400000e+000 2.341550e+001 -6.000000e-001
         vertex 8.400000e+000 2.341550e+001 -6.000000e-001
      endloop
   endfacet
   facet normal 0.000000e+000 -1.000000e+000 0.000000e+000
      outer loop
         vertex 8.400000e+000 2.341550e+001 7.000000e-001
         vertex 6.400000e+000 2.341550e+001 7.000000e-001
         vertex 8.400000e+000 2.341550e+001 -6.000000e-001
      endloop
   endfacet
   facet normal 0.000000e+000 0.000000e+000 -1.000000e+000
      outer loop
         vertex 6.400000e+000 1.950010e+001 7.000000e-001
         vertex 6.400000e+000 2.341550e+001 7.000000e-001
         vertex 8.400000e+000 1.950010e+001 7.000000e-001
      endloop
   endfacet
   facet normal 0.000000e+000 0.000000e+000 -1.000000e+000
      outer loop
         vertex 8.400000e+000 2.341550e+001 7.000000e-001
         vertex 8.400000e+000 1.950010e+001 7.000000e-001
         vertex 6.400000e+000 2.341550e+001 7.000000e-001
      endloop
   endfacet
   facet normal 0.000000e+000 1.000000e+000 -0.000000e+000
      outer loop
         vertex 8.400000e+000 1.950010e+001 7.000000e-001
         vertex 8.400000e+000 1.950010e+001 -6.000000e-001
         vertex 7.400000e+000 1.950010e+001 6.000000e-001
      endloop
   endfacet
   facet normal 0.000000e+000 1.000000e+000 0.000000e+000
      outer loop
         vertex 7.400000e+000 1.950010e+001 -6.000000e-001
         vertex 7.400000e+000 1.950010e+001 6.000000e-001
         vertex 8.400000e+000 1.950010e+001 -6.000000e-001
      endloop
   endfacet
   facet normal 0.000000e+000 1.000000e+000 0.000000e+000
      outer loop
         vertex 6.400000e+000 1.950010e+001 7.000000e-001
         vertex 8.400000e+000 1.950010e+001 7.000000e-001
         vertex 7.400000e+000 1.950010e+001 6.000000e-001
      endloop
   endfacet
   facet normal 0.000000e+000 1.000000e+000 0.000000e+000
      outer loop
         vertex 7.400000e+000 1.950010e+001 6.000000e-001
         vertex 6.400000e+000 1.950010e+001 6.000000e-001
         vertex 6.400000e+000 1.950010e+001 7.000000e-001
      endloop
   endfacet
   facet normal 0.000000e+000 0.000000e+000 1.000000e+000
      outer loop
         vertex 7.400000e+000 2.150010e+001 6.000000e-001
         vertex 6.400000e+000 2.337689e+001 6.000000e-001
         vertex 6.400000e+000 2.150010e+001 6.000000e-001
      endloop
   endfacet
   facet normal 0.000000e+000 0.000000e+000 1.000000e+000
      outer loop
         vertex 5.400000e+000 2.250010e+001 6.000000e-001
         vertex 5.400000e+000 2.150010e+001 6.000000e-001
         vertex 6.400000e+000 2.150010e+001 6.000000e-001
      endloop
   endfacet
   facet normal 0.000000e+000 0.000000e+000 1.000000e+000
      outer loop
         vertex 6.400000e+000 1.950010e+001 6.000000e-001
         vertex 7.400000e+000 1.950010e+001 6.000000e-001
         vertex 6.400000e+000 2.150010e+001 6.000000e-001
      endloop
   endfacet
   facet normal 0.000000e+000 0.000000e+000 1.000000e+000
      outer loop
         vertex 6.400000e+000 2.150010e+001 6.000000e-001
         vertex 6.400000e+000 2.337689e+001 6.000000e-001
         vertex 5.400000e+000 2.250010e+001 6.000000e-001
      endloop
   endfacet
   facet normal 0.000000e+000 0.000000e+000 1.000000e+000
      outer loop
         vertex 7.400000e+000 1.950010e+001 6.000000e-001
         vertex 7.400000e+000 2.150010e+001 6.000000e-001
         vertex 6.400000e+000 2.150010e+001 6.000000e-001
      endloop
   endfacet
   facet normal 0.000000e+000 -1.000000e+000 0.000000e+000
      outer loop
         vertex 5.400000e+000 2.150010e+001 6.000000e-001
         vertex 5.400000e+000 2.150010e+001 -6.000000e-001
         vertex 6.400000e+000 2.150010e+001 -6.000000e-001
      endloop
   endfacet
   facet normal 0.000000e+000 -1.000000e+000 0.000000e+000
      outer loop
         vertex 6.400000e+000 2.150010e+001 6.000000e-001
         vertex 5.400000e+000 2.150010e+001 6.000000e-001
         vertex 6.400000e+000 2.150010e+001 -6.000000e-001
      endloop
   endfacet
   facet normal 0.000000e+000 0.000000e+000 -1.000000e+000
      outer loop
         vertex 7.400000e+000 1.950019e+001 -6.000000e-001
         vertex 6.400000e+000 1.950019e+001 -6.000000e-001
         vertex 6.400000e+000 2.150010e+001 -6.000000e-001
      endloop
   endfacet
   facet normal 0.000000e+000 0.000000e+000 -1.000000e+000
      outer loop
         vertex 6.400000e+000 2.150010e+001 -6.000000e-001
         vertex 6.400000e+000 2.337689e+001 -6.000000e-001
         vertex 7.400000e+000 2.150010e+001 -6.000000e-001
      endloop
   endfacet
   facet normal 0.000000e+000 0.000000e+000 -1.000000e+000
      outer loop
         vertex 6.400000e+000 2.150010e+001 -6.000000e-001
         vertex 5.400000e+000 2.150010e+001 -6.000000e-001
         vertex 5.400000e+000 2.250010e+001 -6.000000e-001
      endloop
   endfacet
   facet normal 0.000000e+000 0.000000e+000 -1.000000e+000
      outer loop
         vertex 7.400000e+000 1.950019e+001 -6.000000e-001
         vertex 6.400000e+000 2.150010e+001 -6.000000e-001
         vertex 7.400000e+000 2.150010e+001 -6.000000e-001
      endloop
   endfacet
   facet normal 0.000000e+000 0.000000e+000 -1.000000e+000
      outer loop
         vertex 6.400000e+000 2.150010e+001 -6.000000e-001
         vertex 5.400000e+000 2.250010e+001 -6.000000e-001
         vertex 6.400000e+000 2.337689e+001 -6.000000e-001
      endloop
   endfacet
   facet normal 0.000000e+000 0.000000e+000 1.000000e+000
      outer loop
         vertex 9.500000e+000 -2.326829e-015 6.000000e+000
         vertex 9.500000e+000 2.650010e+001 6.000000e+000
         vertex -9.500000e+000 1.163414e-015 6.000000e+000
      endloop
   endfacet
   facet normal 0.000000e+000 0.000000e+000 1.000000e+000
      outer loop
         vertex -9.500000e+000 2.650010e+001 6.000000e+000
         vertex -9.500000e+000 1.163414e-015 6.000000e+000
         vertex 9.500000e+000 2.650010e+001 6.000000e+000
      endloop
   endfacet
   facet normal 0.000000e+000 0.000000e+000 1.000000e+000
      outer loop
         vertex -7.991909e+000 -5.136088e+000 6.000000e+000
         vertex -6.221177e+000 -7.179621e+000 6.000000e+000
         vertex -9.115183e+000 -2.676459e+000 6.000000e+000
      endloop
   endfacet
   facet normal 0.000000e+000 0.000000e+000 1.000000e+000
      outer loop
         vertex -1.351991e+000 -9.403304e+000 6.000000e+000
         vertex 1.351991e+000 -9.403304e+000 6.000000e+000
         vertex -9.500000e+000 1.163414e-015 6.000000e+000
      endloop
   endfacet
   facet normal 0.000000e+000 -0.000000e+000 1.000000e+000
      outer loop
         vertex 3.946443e+000 -8.641504e+000 6.000000e+000
         vertex 6.221177e+000 -7.179621e+000 6.000000e+000
         vertex 7.991909e+000 -5.136088e+000 6.000000e+000
      endloop
   endfacet
   facet normal 0.000000e+000 0.000000e+000 1.000000e+000
      outer loop
         vertex 9.115183e+000 -2.676459e+000 6.000000e+000
         vertex 9.500000e+000 -2.326829e-015 6.000000e+000
         vertex 7.991909e+000 -5.136088e+000 6.000000e+000
      endloop
   endfacet
   facet normal 0.000000e+000 0.000000e+000 1.000000e+000
      outer loop
         vertex -1.351991e+000 -9.403304e+000 6.000000e+000
         vertex -9.500000e+000 1.163414e-015 6.000000e+000
         vertex -9.115183e+000 -2.676459e+000 6.000000e+000
      endloop
   endfacet
   facet normal 0.000000e+000 0.000000e+000 1.000000e+000
      outer loop
         vertex 7.991909e+000 -5.136088e+000 6.000000e+000
         vertex 9.500000e+000 -2.326829e-015 6.000000e+000
         vertex -9.500000e+000 1.163414e-015 6.000000e+000
      endloop
   endfacet
   facet normal -0.000000e+000 -0.000000e+000 1.000000e+000
      outer loop
         vertex -6.221177e+000 -7.179621e+000 6.000000e+000
         vertex -3.946443e+000 -8.641504e+000 6.000000e+000
         vertex -1.351991e+000 -9.403304e+000 6.000000e+000
      endloop
   endfacet
   facet normal -0.000000e+000 -0.000000e+000 1.000000e+000
      outer loop
         vertex -9.115183e+000 -2.676459e+000 6.000000e+000
         vertex -6.221177e+000 -7.179621e+000 6.000000e+000
         vertex -1.351991e+000 -9.403304e+000 6.000000e+000
      endloop
   endfacet
   facet normal 0.000000e+000 0.000000e+000 1.000000e+000
      outer loop
         vertex 3.946443e+000 -8.641504e+000 6.000000e+000
         vertex 7.991909e+000 -5.136088e+000 6.000000e+000
         vertex 1.351991e+000 -9.403304e+000 6.000000e+000
      endloop
   endfacet
   facet normal 0.000000e+000 -0.000000e+000 1.000000e+000
      outer loop
         vertex -9.500000e+000 1.163414e-015 6.000000e+000
         vertex 1.351991e+000 -9.403304e+000 6.000000e+000
         vertex 7.991909e+000 -5.136088e+000 6.000000e+000
      endloop
   endfacet
   facet normal -9.999892e-001 -4.640291e-003 -3.309748e-018
      outer loop
         vertex -9.499591e+000 -8.816729e-002 -4.300000e+000
         vertex -9.500000e+000 -3.160670e-015 -4.300000e+000
         vertex -9.500000e+000 -1.734144e-015 -6.300000e+000
      endloop
   endfacet
   facet normal -9.096321e-001 -4.154149e-001 0.000000e+000
      outer loop
         vertex -9.115183e+000 -2.676459e+000 -6.300000e+000
         vertex -7.991909e+000 -5.136088e+000 -6.300000e+000
         vertex -7.991909e+000 -5.136088e+000 6.000000e+000
      endloop
   endfacet
   facet normal -5.406409e-001 -8.412535e-001 0.000000e+000
      outer loop
         vertex -6.221177e+000 -7.179621e+000 -6.300000e+000
         vertex -3.946443e+000 -8.641504e+000 -6.300000e+000
         vertex -6.221177e+000 -7.179621e+000 6.000000e+000
      endloop
   endfacet
   facet normal 0.000000e+000 -1.000000e+000 0.000000e+000
      outer loop
         vertex -1.351991e+000 -9.403304e+000 -6.300000e+000
         vertex 1.351991e+000 -9.403304e+000 -6.300000e+000
         vertex -1.351991e+000 -9.403304e+000 6.000000e+000
      endloop
   endfacet
   facet normal 5.406409e-001 -8.412535e-001 0.000000e+000
      outer loop
         vertex 3.946443e+000 -8.641504e+000 -6.300000e+000
         vertex 6.221177e+000 -7.179621e+000 -6.300000e+000
         vertex 3.946443e+000 -8.641504e+000 6.000000e+000
      endloop
   endfacet
   facet normal 9.096321e-001 -4.154149e-001 0.000000e+000
      outer loop
         vertex 7.991909e+000 -5.136088e+000 -6.300000e+000
         vertex 9.115183e+000 -2.676459e+000 -6.300000e+000
         vertex 9.115183e+000 -2.676459e+000 6.000000e+000
      endloop
   endfacet
   facet normal 9.999892e-001 -4.640291e-003 -2.165877e-018
      outer loop
         vertex 9.500000e+000 3.552714e-016 -6.300000e+000
         vertex 9.500000e+000 -5.782378e-016 -4.300000e+000
         vertex 9.499591e+000 -8.816729e-002 -4.300000e+000
      endloop
   endfacet
   facet normal 9.999278e-001 -1.201747e-002 4.685607e-005
      outer loop
         vertex 9.498363e+000 -1.763270e-001 -4.300000e+000
         vertex 9.499885e+000 -4.689925e-002 -3.565979e+000
         vertex 9.500000e+000 -2.326829e-015 6.000000e+000
      endloop
   endfacet
   facet normal 9.999970e-001 -2.460471e-003 -4.421058e-019
      outer loop
         vertex 9.500000e+000 -6.557735e-016 -3.300000e+000
         vertex 9.500000e+000 -2.326829e-015 6.000000e+000
         vertex 9.499885e+000 -4.689925e-002 -3.565979e+000
      endloop
   endfacet
   facet normal 7.557495e-001 -6.548608e-001 0.000000e+000
      outer loop
         vertex 7.991909e+000 -5.136088e+000 6.000000e+000
         vertex 6.221177e+000 -7.179621e+000 6.000000e+000
         vertex 6.221177e+000 -7.179621e+000 -6.300000e+000
      endloop
   endfacet
   facet normal 2.817326e-001 -9.594930e-001 0.000000e+000
      outer loop
         vertex 3.946443e+000 -8.641504e+000 6.000000e+000
         vertex 1.351991e+000 -9.403304e+000 6.000000e+000
         vertex 3.946443e+000 -8.641504e+000 -6.300000e+000
      endloop
   endfacet
   facet normal -2.817326e-001 -9.594930e-001 0.000000e+000
      outer loop
         vertex -1.351991e+000 -9.403304e+000 6.000000e+000
         vertex -3.946443e+000 -8.641504e+000 6.000000e+000
         vertex -1.351991e+000 -9.403304e+000 -6.300000e+000
      endloop
   endfacet
   facet normal -7.557495e-001 -6.548608e-001 -0.000000e+000
      outer loop
         vertex -6.221177e+000 -7.179621e+000 6.000000e+000
         vertex -7.991909e+000 -5.136088e+000 6.000000e+000
         vertex -7.991909e+000 -5.136088e+000 -6.300000e+000
      endloop
   endfacet
   facet normal -9.898189e-001 -1.423146e-001 2.279035e-003
      outer loop
         vertex -9.115183e+000 -2.676459e+000 6.000000e+000
         vertex -9.500000e+000 1.163414e-015 6.000000e+000
         vertex -9.498363e+000 -1.763270e-001 -4.300000e+000
      endloop
   endfacet
   facet normal -9.999768e-001 -6.808494e-003 5.066743e-019
      outer loop
         vertex -9.500000e+000 4.813629e-016 -3.300000e+000
         vertex -9.499119e+000 -1.294228e-001 -4.033993e+000
         vertex -9.500000e+000 1.163414e-015 6.000000e+000
      endloop
   endfacet
   facet normal -9.999030e-001 -1.392087e-002 -4.091395e-004
      outer loop
         vertex -9.499591e+000 -8.816729e-002 -4.300000e+000
         vertex -9.500000e+000 -1.734144e-015 -6.300000e+000
         vertex -9.498363e+000 -1.763270e-001 -4.300000e+000
      endloop
   endfacet
   facet normal -5.406409e-001 -8.412535e-001 0.000000e+000
      outer loop
         vertex -6.221177e+000 -7.179621e+000 6.000000e+000
         vertex -3.946443e+000 -8.641504e+000 -6.300000e+000
         vertex -3.946443e+000 -8.641504e+000 6.000000e+000
      endloop
   endfacet
   facet normal 9.096321e-001 -4.154149e-001 0.000000e+000
      outer loop
         vertex 7.991909e+000 -5.136088e+000 -6.300000e+000
         vertex 9.115183e+000 -2.676459e+000 6.000000e+000
         vertex 7.991909e+000 -5.136088e+000 6.000000e+000
      endloop
   endfacet
   facet normal 9.898189e-001 -1.423146e-001 2.279035e-003
      outer loop
         vertex 9.498363e+000 -1.763270e-001 -4.300000e+000
         vertex 9.500000e+000 -2.326829e-015 6.000000e+000
         vertex 9.115183e+000 -2.676459e+000 6.000000e+000
      endloop
   endfacet
   facet normal 2.817326e-001 -9.594930e-001 0.000000e+000
      outer loop
         vertex 3.946443e+000 -8.641504e+000 -6.300000e+000
         vertex 1.351991e+000 -9.403304e+000 6.000000e+000
         vertex 1.351991e+000 -9.403304e+000 -6.300000e+000
      endloop
   endfacet
   facet normal -9.884580e-001 -1.514952e-001 0.000000e+000
      outer loop
         vertex -9.115183e+000 -2.676459e+000 6.000000e+000
         vertex -9.498363e+000 -1.763270e-001 -4.300000e+000
         vertex -9.115183e+000 -2.676459e+000 -6.300000e+000
      endloop
   endfacet
   facet normal -9.998583e-001 -1.683446e-002 1.293297e-004
      outer loop
         vertex -9.500000e+000 1.163414e-015 6.000000e+000
         vertex -9.499119e+000 -1.294228e-001 -4.033993e+000
         vertex -9.498363e+000 -1.763270e-001 -4.300000e+000
      endloop
   endfacet
   facet normal 9.884580e-001 -1.514952e-001 0.000000e+000
      outer loop
         vertex 9.498363e+000 -1.763270e-001 -4.300000e+000
         vertex 9.115183e+000 -2.676459e+000 6.000000e+000
         vertex 9.115183e+000 -2.676459e+000 -6.300000e+000
      endloop
   endfacet
   facet normal -9.897533e-001 -1.423052e-001 -1.173625e-002
      outer loop
         vertex -9.115183e+000 -2.676459e+000 -6.300000e+000
         vertex -9.498363e+000 -1.763270e-001 -4.300000e+000
         vertex -9.500000e+000 -1.734144e-015 -6.300000e+000
      endloop
   endfacet
   facet normal -7.557495e-001 -6.548608e-001 0.000000e+000
      outer loop
         vertex -7.991909e+000 -5.136088e+000 -6.300000e+000
         vertex -6.221177e+000 -7.179621e+000 -6.300000e+000
         vertex -6.221177e+000 -7.179621e+000 6.000000e+000
      endloop
   endfacet
   facet normal 7.557495e-001 -6.548608e-001 0.000000e+000
      outer loop
         vertex 6.221177e+000 -7.179621e+000 -6.300000e+000
         vertex 7.991909e+000 -5.136088e+000 -6.300000e+000
         vertex 7.991909e+000 -5.136088e+000 6.000000e+000
      endloop
   endfacet
   facet normal 9.999030e-001 -1.392087e-002 -4.091395e-004
      outer loop
         vertex 9.499591e+000 -8.816729e-002 -4.300000e+000
         vertex 9.498363e+000 -1.763270e-001 -4.300000e+000
         vertex 9.500000e+000 3.552714e-016 -6.300000e+000
      endloop
   endfacet
   facet normal 0.000000e+000 -1.000000e+000 0.000000e+000
      outer loop
         vertex 1.351991e+000 -9.403304e+000 6.000000e+000
         vertex -1.351991e+000 -9.403304e+000 6.000000e+000
         vertex 1.351991e+000 -9.403304e+000 -6.300000e+000
      endloop
   endfacet
   facet normal -9.096321e-001 -4.154149e-001 0.000000e+000
      outer loop
         vertex -9.115183e+000 -2.676459e+000 -6.300000e+000
         vertex -7.991909e+000 -5.136088e+000 6.000000e+000
         vertex -9.115183e+000 -2.676459e+000 6.000000e+000
      endloop
   endfacet
   facet normal -2.817326e-001 -9.594930e-001 -0.000000e+000
      outer loop
         vertex -1.351991e+000 -9.403304e+000 -6.300000e+000
         vertex -3.946443e+000 -8.641504e+000 6.000000e+000
         vertex -3.946443e+000 -8.641504e+000 -6.300000e+000
      endloop
   endfacet
   facet normal 9.897533e-001 -1.423052e-001 -1.173625e-002
      outer loop
         vertex 9.115183e+000 -2.676459e+000 -6.300000e+000
         vertex 9.500000e+000 3.552714e-016 -6.300000e+000
         vertex 9.498363e+000 -1.763270e-001 -4.300000e+000
      endloop
   endfacet
   facet normal 5.406409e-001 -8.412535e-001 0.000000e+000
      outer loop
         vertex 3.946443e+000 -8.641504e+000 6.000000e+000
         vertex 6.221177e+000 -7.179621e+000 -6.300000e+000
         vertex 6.221177e+000 -7.179621e+000 6.000000e+000
      endloop
   endfacet
   facet normal 0.000000e+000 -9.848078e-001 1.736481e-001
      outer loop
         vertex 9.498363e+000 -1.763270e-001 -4.300000e+000
         vertex 9.500000e+000 -1.763270e-001 -4.300000e+000
         vertex 9.499885e+000 -4.689925e-002 -3.565979e+000
      endloop
   endfacet
   facet normal 1.663787e-004 -9.848077e-001 1.736481e-001
      outer loop
         vertex 9.500000e+000 -6.557735e-016 -3.300000e+000
         vertex 9.499885e+000 -4.689925e-002 -3.565979e+000
         vertex 9.500000e+000 -1.763270e-001 -4.300000e+000
      endloop
   endfacet
   facet normal 0.000000e+000 -0.000000e+000 -1.000000e+000
      outer loop
         vertex 9.499591e+000 -8.816729e-002 -4.300000e+000
         vertex 9.500000e+000 -5.782378e-016 -4.300000e+000
         vertex 9.500000e+000 -1.763270e-001 -4.300000e+000
      endloop
   endfacet
   facet normal 0.000000e+000 -0.000000e+000 -1.000000e+000
      outer loop
         vertex 9.498363e+000 -1.763270e-001 -4.300000e+000
         vertex 9.499591e+000 -8.816729e-002 -4.300000e+000
         vertex 9.500000e+000 -1.763270e-001 -4.300000e+000
      endloop
   endfacet
   facet normal 0.000000e+000 0.000000e+000 -1.000000e+000
      outer loop
         vertex -9.498363e+000 -1.763270e-001 -4.300000e+000
         vertex -9.500000e+000 -1.763270e-001 -4.300000e+000
         vertex -9.499591e+000 -8.816729e-002 -4.300000e+000
      endloop
   endfacet
   facet normal -0.000000e+000 0.000000e+000 -1.000000e+000
      outer loop
         vertex -9.500000e+000 -3.160670e-015 -4.300000e+000
         vertex -9.499591e+000 -8.816729e-002 -4.300000e+000
         vertex -9.500000e+000 -1.763270e-001 -4.300000e+000
      endloop
   endfacet
   facet normal -6.406408e-005 -9.848078e-001 1.736481e-001
      outer loop
         vertex -9.499119e+000 -1.294228e-001 -4.033993e+000
         vertex -9.500000e+000 4.813629e-016 -3.300000e+000
         vertex -9.500000e+000 -1.763270e-001 -4.300000e+000
      endloop
   endfacet
   facet normal 0.000000e+000 -9.848078e-001 1.736479e-001
      outer loop
         vertex -9.498363e+000 -1.763270e-001 -4.300000e+000
         vertex -9.499119e+000 -1.294228e-001 -4.033993e+000
         vertex -9.500000e+000 -1.763270e-001 -4.300000e+000
      endloop
   endfacet
   facet normal 0.000000e+000 -0.000000e+000 -1.000000e+000
      outer loop
         vertex -8.400000e+000 2.341550e+001 -6.000000e-001
         vertex -6.400000e+000 2.341559e+001 -6.000000e-001
         vertex -6.400000e+000 2.341550e+001 -6.000000e-001
      endloop
   endfacet
   facet normal 0.000000e+000 0.000000e+000 -1.000000e+000
      outer loop
         vertex -6.400000e+000 2.341559e+001 -6.000000e-001
         vertex -8.400000e+000 2.341550e+001 -6.000000e-001
         vertex -8.400000e+000 2.341559e+001 -6.000000e-001
      endloop
   endfacet
   facet normal 1.000000e+000 -0.000000e+000 0.000000e+000
      outer loop
         vertex -8.400000e+000 2.341559e+001 -6.000000e-001
         vertex -8.400000e+000 2.341550e+001 -6.000000e-001
         vertex -8.400000e+000 2.341559e+001 -7.000000e-001
      endloop
   endfacet
   facet normal 1.000000e+000 -0.000000e+000 0.000000e+000
      outer loop
         vertex -8.400000e+000 2.341550e+001 7.000000e-001
         vertex -8.400000e+000 1.950010e+001 7.000000e-001
         vertex -8.400000e+000 1.950019e+001 -6.000000e-001
      endloop
   endfacet
   facet normal 1.000000e+000 0.000000e+000 0.000000e+000
      outer loop
         vertex -8.400000e+000 1.950010e+001 -6.000000e-001
         vertex -8.400000e+000 1.950019e+001 -6.000000e-001
         vertex -8.400000e+000 1.950010e+001 7.000000e-001
      endloop
   endfacet
   facet normal 1.000000e+000 0.000000e+000 0.000000e+000
      outer loop
         vertex -8.400000e+000 2.341559e+001 -7.000000e-001
         vertex -8.400000e+000 2.341550e+001 -6.000000e-001
         vertex -8.400000e+000 1.950019e+001 -7.000000e-001
      endloop
   endfacet
   facet normal 1.000000e+000 0.000000e+000 0.000000e+000
      outer loop
         vertex -8.400000e+000 2.341550e+001 -6.000000e-001
         vertex -8.400000e+000 2.341550e+001 7.000000e-001
         vertex -8.400000e+000 1.950019e+001 -6.000000e-001
      endloop
   endfacet
   facet normal 1.000000e+000 0.000000e+000 0.000000e+000
      outer loop
         vertex -8.400000e+000 1.950019e+001 -7.000000e-001
         vertex -8.400000e+000 2.341550e+001 -6.000000e-001
         vertex -8.400000e+000 1.950019e+001 -6.000000e-001
      endloop
   endfacet
   facet normal 0.000000e+000 -0.000000e+000 1.000000e+000
      outer loop
         vertex -8.400000e+000 1.950019e+001 -6.000000e-001
         vertex -7.400000e+000 1.950010e+001 -6.000000e-001
         vertex -7.400000e+000 1.950019e+001 -6.000000e-001
      endloop
   endfacet
   facet normal 0.000000e+000 0.000000e+000 1.000000e+000
      outer loop
         vertex -7.400000e+000 1.950010e+001 -6.000000e-001
         vertex -8.400000e+000 1.950019e+001 -6.000000e-001
         vertex -8.400000e+000 1.950010e+001 -6.000000e-001
      endloop
   endfacet
   facet normal 6.592694e-001 7.519068e-001 -0.000000e+000
      outer loop
         vertex -5.400000e+000 2.250010e+001 6.000000e-001
         vertex -5.400000e+000 2.250010e+001 -6.000000e-001
         vertex -6.400000e+000 2.337689e+001 -6.000000e-001
      endloop
   endfacet
   facet normal 6.592694e-001 7.519068e-001 0.000000e+000
      outer loop
         vertex -6.400000e+000 2.337689e+001 6.000000e-001
         vertex -5.400000e+000 2.250010e+001 6.000000e-001
         vertex -6.400000e+000 2.337689e+001 -6.000000e-001
      endloop
   endfacet
   facet normal 1.000000e+000 0.000000e+000 0.000000e+000
      outer loop
         vertex -5.400000e+000 2.150010e+001 6.000000e-001
         vertex -5.400000e+000 2.150010e+001 -6.000000e-001
         vertex -5.400000e+000 2.250010e+001 -6.000000e-001
      endloop
   endfacet
   facet normal 1.000000e+000 -0.000000e+000 0.000000e+000
      outer loop
         vertex -5.400000e+000 2.250010e+001 6.000000e-001
         vertex -5.400000e+000 2.150010e+001 6.000000e-001
         vertex -5.400000e+000 2.250010e+001 -6.000000e-001
      endloop
   endfacet
   facet normal -1.000000e+000 0.000000e+000 0.000000e+000
      outer loop
         vertex -7.400000e+000 2.150010e+001 6.000000e-001
         vertex -7.400000e+000 2.150010e+001 -6.000000e-001
         vertex -7.400000e+000 1.950019e+001 -6.000000e-001
      endloop
   endfacet
   facet normal -1.000000e+000 0.000000e+000 0.000000e+000
      outer loop
         vertex -7.400000e+000 1.950010e+001 -6.000000e-001
         vertex -7.400000e+000 1.950010e+001 6.000000e-001
         vertex -7.400000e+000 1.950019e+001 -6.000000e-001
      endloop
   endfacet
   facet normal -1.000000e+000 0.000000e+000 0.000000e+000
      outer loop
         vertex -7.400000e+000 1.950019e+001 -6.000000e-001
         vertex -7.400000e+000 1.950010e+001 6.000000e-001
         vertex -7.400000e+000 2.150010e+001 6.000000e-001
      endloop
   endfacet
   facet normal -8.825400e-001 4.702374e-001 0.000000e+000
      outer loop
         vertex -6.400000e+000 2.337689e+001 6.000000e-001
         vertex -6.400000e+000 2.337689e+001 -6.000000e-001
         vertex -7.400000e+000 2.150010e+001 -6.000000e-001
      endloop
   endfacet
   facet normal -8.825400e-001 4.702374e-001 0.000000e+000
      outer loop
         vertex -7.400000e+000 2.150010e+001 6.000000e-001
         vertex -6.400000e+000 2.337689e+001 6.000000e-001
         vertex -7.400000e+000 2.150010e+001 -6.000000e-001
      endloop
   endfacet
   facet normal 0.000000e+000 -0.000000e+000 1.000000e+000
      outer loop
         vertex 7.400000e+000 1.950010e+001 -6.000000e-001
         vertex 8.400000e+000 1.950010e+001 -6.000000e-001
         vertex 8.400000e+000 1.950019e+001 -6.000000e-001
      endloop
   endfacet
   facet normal 0.000000e+000 0.000000e+000 1.000000e+000
      outer loop
         vertex 7.400000e+000 1.950010e+001 -6.000000e-001
         vertex 8.400000e+000 1.950019e+001 -6.000000e-001
         vertex 7.400000e+000 1.950019e+001 -6.000000e-001
      endloop
   endfacet
   facet normal -1.000000e+000 0.000000e+000 0.000000e+000
      outer loop
         vertex 8.400000e+000 1.950019e+001 -6.000000e-001
         vertex 8.400000e+000 1.950010e+001 -6.000000e-001
         vertex 8.400000e+000 1.950010e+001 7.000000e-001
      endloop
   endfacet
   facet normal -1.000000e+000 0.000000e+000 0.000000e+000
      outer loop
         vertex 8.400000e+000 2.341550e+001 7.000000e-001
         vertex 8.400000e+000 2.341550e+001 -6.000000e-001
         vertex 8.400000e+000 1.950019e+001 -6.000000e-001
      endloop
   endfacet
   facet normal -1.000000e+000 0.000000e+000 0.000000e+000
      outer loop
         vertex 8.400000e+000 2.341559e+001 -6.000000e-001
         vertex 8.400000e+000 2.341559e+001 -7.000000e-001
         vertex 8.400000e+000 2.341550e+001 -6.000000e-001
      endloop
   endfacet
   facet normal -1.000000e+000 0.000000e+000 0.000000e+000
      outer loop
         vertex 8.400000e+000 1.950019e+001 -6.000000e-001
         vertex 8.400000e+000 1.950010e+001 7.000000e-001
         vertex 8.400000e+000 2.341550e+001 7.000000e-001
      endloop
   endfacet
   facet normal -1.000000e+000 0.000000e+000 0.000000e+000
      outer loop
         vertex 8.400000e+000 2.341559e+001 -7.000000e-001
         vertex 8.400000e+000 1.950019e+001 -7.000000e-001
         vertex 8.400000e+000 2.341550e+001 -6.000000e-001
      endloop
   endfacet
   facet normal -1.000000e+000 -0.000000e+000 0.000000e+000
      outer loop
         vertex 8.400000e+000 1.950019e+001 -6.000000e-001
         vertex 8.400000e+000 2.341550e+001 -6.000000e-001
         vertex 8.400000e+000 1.950019e+001 -7.000000e-001
      endloop
   endfacet
   facet normal 0.000000e+000 -0.000000e+000 -1.000000e+000
      outer loop
         vertex 6.400000e+000 2.341550e+001 -6.000000e-001
         vertex 8.400000e+000 2.341559e+001 -6.000000e-001
         vertex 8.400000e+000 2.341550e+001 -6.000000e-001
      endloop
   endfacet
   facet normal 0.000000e+000 0.000000e+000 -1.000000e+000
      outer loop
         vertex 8.400000e+000 2.341559e+001 -6.000000e-001
         vertex 6.400000e+000 2.341550e+001 -6.000000e-001
         vertex 6.400000e+000 2.341559e+001 -6.000000e-001
      endloop
   endfacet
   facet normal 1.000000e+000 0.000000e+000 0.000000e+000
      outer loop
         vertex 7.400000e+000 1.950010e+001 -6.000000e-001
         vertex 7.400000e+000 1.950019e+001 -6.000000e-001
         vertex 7.400000e+000 1.950010e+001 6.000000e-001
      endloop
   endfacet
   facet normal 1.000000e+000 0.000000e+000 0.000000e+000
      outer loop
         vertex 7.400000e+000 2.150010e+001 -6.000000e-001
         vertex 7.400000e+000 2.150010e+001 6.000000e-001
         vertex 7.400000e+000 1.950019e+001 -6.000000e-001
      endloop
   endfacet
   facet normal 1.000000e+000 0.000000e+000 0.000000e+000
      outer loop
         vertex 7.400000e+000 1.950019e+001 -6.000000e-001
         vertex 7.400000e+000 2.150010e+001 6.000000e-001
         vertex 7.400000e+000 1.950010e+001 6.000000e-001
      endloop
   endfacet
   facet normal -6.592694e-001 7.519068e-001 0.000000e+000
      outer loop
         vertex 6.400000e+000 2.337689e+001 6.000000e-001
         vertex 6.400000e+000 2.337689e+001 -6.000000e-001
         vertex 5.400000e+000 2.250010e+001 -6.000000e-001
      endloop
   endfacet
   facet normal -6.592694e-001 7.519068e-001 0.000000e+000
      outer loop
         vertex 5.400000e+000 2.250010e+001 6.000000e-001
         vertex 6.400000e+000 2.337689e+001 6.000000e-001
         vertex 5.400000e+000 2.250010e+001 -6.000000e-001
      endloop
   endfacet
   facet normal -1.000000e+000 0.000000e+000 0.000000e+000
      outer loop
         vertex 5.400000e+000 2.250010e+001 6.000000e-001
         vertex 5.400000e+000 2.250010e+001 -6.000000e-001
         vertex 5.400000e+000 2.150010e+001 -6.000000e-001
      endloop
   endfacet
   facet normal -1.000000e+000 -0.000000e+000 0.000000e+000
      outer loop
         vertex 5.400000e+000 2.150010e+001 6.000000e-001
         vertex 5.400000e+000 2.250010e+001 6.000000e-001
         vertex 5.400000e+000 2.150010e+001 -6.000000e-001
      endloop
   endfacet
   facet normal 8.825400e-001 4.702374e-001 -0.000000e+000
      outer loop
         vertex 7.400000e+000 2.150010e+001 6.000000e-001
         vertex 7.400000e+000 2.150010e+001 -6.000000e-001
         vertex 6.400000e+000 2.337689e+001 6.000000e-001
      endloop
   endfacet
   facet normal 8.825400e-001 4.702374e-001 0.000000e+000
      outer loop
         vertex 6.400000e+000 2.337689e+001 -6.000000e-001
         vertex 6.400000e+000 2.337689e+001 6.000000e-001
         vertex 7.400000e+000 2.150010e+001 -6.000000e-001
      endloop
   endfacet
endsolid
